<?xml version="1.0" encoding="UTF-8" standalone="no"?>
<!-- Created with Inkscape (http://www.inkscape.org/) -->

<svg
   xmlns:dc="http://purl.org/dc/elements/1.1/"
   xmlns:cc="http://creativecommons.org/ns#"
   xmlns:rdf="http://www.w3.org/1999/02/22-rdf-syntax-ns#"
   xmlns:svg="http://www.w3.org/2000/svg"
   xmlns="http://www.w3.org/2000/svg"
   xmlns:xlink="http://www.w3.org/1999/xlink"
   xmlns:sodipodi="http://sodipodi.sourceforge.net/DTD/sodipodi-0.dtd"
   xmlns:inkscape="http://www.inkscape.org/namespaces/inkscape"
   width="48"
   height="48"
   viewBox="0 0 48 48"
   id="svg3419"
   version="1.1"
   inkscape:version="0.91 r13725"
   sodipodi:docname="com.github.muriloventuroso.easyssh.svg">
  <defs
     id="defs3421">
    <linearGradient
       gradientTransform="matrix(1.0422604,0,0,1.0422604,-1.0142523,1002.3937)"
       gradientUnits="userSpaceOnUse"
       xlink:href="#linearGradient3924"
       id="linearGradient4136"
       y2="43"
       x2="23.99999"
       y1="4.999989"
       x1="23.99999" />
    <linearGradient
       id="linearGradient3924">
      <stop
         offset="0"
         style="stop-color:#ffffff;stop-opacity:1"
         id="stop3926" />
      <stop
         offset="0.06316455"
         style="stop-color:#ffffff;stop-opacity:0.23529412"
         id="stop3928" />
      <stop
         offset="0.95056331"
         style="stop-color:#ffffff;stop-opacity:0.15686275"
         id="stop3930" />
      <stop
         offset="1"
         style="stop-color:#ffffff;stop-opacity:0.39215687"
         id="stop3932" />
    </linearGradient>
    <radialGradient
       gradientTransform="matrix(0,9.2169463,-11.315466,0,137.50735,923.65706)"
       gradientUnits="userSpaceOnUse"
       xlink:href="#linearGradient2867-449-88-871-390-598-476-591-434-148-57-177-8-3-3-6-4-8-8-8-5-7-8"
       id="radialGradient3936-3"
       fy="9.9571075"
       fx="7.1183534"
       r="8.9330635"
       cy="9.9571075"
       cx="7.1183534" />
    <linearGradient
       id="linearGradient2867-449-88-871-390-598-476-591-434-148-57-177-8-3-3-6-4-8-8-8-5-7-8">
      <stop
         offset="0"
         style="stop-color:#404648;stop-opacity:1"
         id="stop3750-1-0-7-6-6-1-3-9-3-9-2" />
      <stop
         offset="1"
         style="stop-color:#0c1011;stop-opacity:1"
         id="stop3754-1-8-5-2-7-6-7-1-9-1-0" />
    </linearGradient>
    <radialGradient
       gradientTransform="matrix(2.003784,0,0,1.4,27.98813,-17.4)"
       gradientUnits="userSpaceOnUse"
       xlink:href="#linearGradient3688-166-749-5"
       id="radialGradient4093"
       fy="43.5"
       fx="4.9929786"
       r="2.5"
       cy="43.5"
       cx="4.9929786" />
    <linearGradient
       id="linearGradient3688-166-749-5">
      <stop
         offset="0"
         style="stop-color:#181818;stop-opacity:1"
         id="stop2883-0" />
      <stop
         offset="1"
         style="stop-color:#181818;stop-opacity:0"
         id="stop2885-5" />
    </linearGradient>
    <radialGradient
       gradientTransform="matrix(2.003784,0,0,1.4,-20.01187,-104.4)"
       gradientUnits="userSpaceOnUse"
       xlink:href="#linearGradient3688-166-749-5"
       id="radialGradient4095"
       fy="43.5"
       fx="4.9929786"
       r="2.5"
       cy="43.5"
       cx="4.9929786" />
    <linearGradient
       gradientUnits="userSpaceOnUse"
       xlink:href="#linearGradient3702-501-757-0"
       id="linearGradient4097"
       y2="39.999443"
       x2="25.058096"
       y1="47.027729"
       x1="25.058096" />
    <linearGradient
       id="linearGradient3702-501-757-0">
      <stop
         offset="0"
         style="stop-color:#181818;stop-opacity:0"
         id="stop2895-0" />
      <stop
         offset="0.5"
         style="stop-color:#181818;stop-opacity:1"
         id="stop2897-2" />
      <stop
         offset="1"
         style="stop-color:#181818;stop-opacity:0"
         id="stop2899-6" />
    </linearGradient>
    <radialGradient
       gradientTransform="matrix(0.5942589,0,0,0.06482825,26.394137,1040.8214)"
       gradientUnits="userSpaceOnUse"
       xlink:href="#linearGradient3811"
       id="radialGradient4111"
       fy="93.467628"
       fx="-4.0287771"
       r="35.338131"
       cy="93.467628"
       cx="-4.0287771" />
    <linearGradient
       id="linearGradient3811">
      <stop
         offset="0"
         style="stop-color:#000000;stop-opacity:1"
         id="stop3813" />
      <stop
         offset="1"
         style="stop-color:#000000;stop-opacity:0"
         id="stop3815" />
    </linearGradient>
  </defs>
  <sodipodi:namedview
     id="base"
     pagecolor="#ffffff"
     bordercolor="#666666"
     borderopacity="1.0"
     inkscape:pageopacity="0.0"
     inkscape:pageshadow="2"
     inkscape:zoom="10.950583"
     inkscape:cx="37.354791"
     inkscape:cy="11.858447"
     inkscape:document-units="px"
     inkscape:current-layer="layer1"
     showgrid="false"
     units="px"
     showguides="false"
     inkscape:guide-bbox="true"
     inkscape:window-width="1920"
     inkscape:window-height="1017"
     inkscape:window-x="0"
     inkscape:window-y="30"
     inkscape:window-maximized="1">
    <sodipodi:guide
       position="-5.3033009,45.583134"
       orientation="0,1"
       id="guide4410" />
    <sodipodi:guide
       position="-14.20527,56.473841"
       orientation="0,1"
       id="guide4415" />
    <sodipodi:guide
       position="-21.361607,55.691965"
       orientation="-0.5900496,0.807367"
       id="guide4417" />
    <sodipodi:guide
       position="-3.7565048,46.751123"
       orientation="-0.59590937,-0.80305169"
       id="guide4419" />
  </sodipodi:namedview>
  <metadata
     id="metadata3424">
    <rdf:RDF>
      <cc:Work
         rdf:about="">
        <dc:format>image/svg+xml</dc:format>
        <dc:type
           rdf:resource="http://purl.org/dc/dcmitype/StillImage" />
        <dc:title />
      </cc:Work>
    </rdf:RDF>
  </metadata>
  <g
     inkscape:label="Camada 1"
     inkscape:groupmode="layer"
     id="layer1"
     transform="translate(0,-1004.3622)">
    <path
       style="color:#000000;display:inline;overflow:visible;visibility:visible;opacity:0.9;fill:url(#radialGradient3936-3);fill-opacity:1;fill-rule:nonzero;stroke:none;stroke-width:0.99999994;marker:none;enable-background:accumulate"
       d="m 24,1007.7443 c -10.893654,0 -19.6636358,8.77 -19.6636358,19.6636 0,3.1591 0.7415841,6.1368 2.0545098,8.7766 0.3914461,0.3125 0.9401852,0.6279 1.6518111,0.9024 1.8118348,0.6988 4.5923659,1.1222 7.9421159,1.126 6.673069,0.01 14.927492,-1.8241 21.308735,-4.7384 2.175621,-0.9936 4.59051,-2.4267 6.212004,-3.6012 0.100262,-0.8078 0.158096,-1.6295 0.158096,-2.4654 0,-10.8936 -8.769982,-19.6636 -19.663636,-19.6636 z m 18.653906,25.904 c -1.345852,0.8158 -2.820911,1.6047 -4.249964,2.2573 -6.781109,3.0969 -15.266947,4.9865 -22.421378,4.9801 -2.634868,-0 -4.97692,-0.2307 -6.9517751,-0.7078 3.6011751,4.2216 8.9600991,6.8937 14.9692111,6.8937 8.709465,0 16.055859,-5.6083 18.653906,-13.4233 z"
       id="rect5505-21-3"
       inkscape:connector-curvature="0" />
    <rect
       width="38.563637"
       height="38.563637"
       rx="19.281818"
       ry="18.03409"
       x="4.7181778"
       y="1008.1262"
       id="rect6741-7"
       style="opacity:0.3;fill:none;stroke:url(#linearGradient4136);stroke-width:0.38181815;stroke-linecap:round;stroke-linejoin:round;stroke-miterlimit:4;stroke-dasharray:none;stroke-dashoffset:0;stroke-opacity:1" />
    <path
       style="color:#000000;display:inline;overflow:visible;visibility:visible;opacity:0.7;fill:none;stroke:#000000;stroke-width:0.38181818;stroke-linecap:round;stroke-linejoin:round;stroke-miterlimit:4;stroke-dasharray:none;stroke-dashoffset:0;stroke-opacity:1;marker:none;enable-background:accumulate"
       d="m 24,1007.7443 c -10.893654,0 -19.6636358,8.77 -19.6636358,19.6636 0,3.1591 0.7415841,6.1368 2.0545098,8.7766 0.065255,0.052 0.1414961,0.1038 0.2155184,0.1559 0.057162,0.04 0.1135107,0.08 0.1759945,0.12 0.064385,0.041 0.1335798,0.082 0.2035866,0.1223 0.098939,0.057 0.2031379,0.1142 0.3132104,0.1701 0.054292,0.028 0.1070145,0.055 0.1640623,0.083 0.1809005,0.086 0.3716446,0.1712 0.5794389,0.2514 0.6794381,0.262 1.4950701,0.4852 2.4258879,0.6622 0.620545,0.118 1.292355,0.2155 2.00902,0.2901 0.716665,0.075 1.47793,0.1262 2.278231,0.1528 0.400151,0.013 0.810259,0.02 1.228977,0.021 1.668268,0 3.435058,-0.1118 5.247017,-0.3281 0.45299,-0.054 0.909185,-0.1145 1.366939,-0.1812 0.915507,-0.1335 1.83852,-0.2922 2.762962,-0.4743 1.848883,-0.3642 3.702132,-0.8224 5.505788,-1.3632 0.901828,-0.2704 1.791261,-0.5616 2.661541,-0.8718 1.305419,-0.4652 2.568005,-0.9734 3.764488,-1.5198 0.312644,-0.1428 0.630899,-0.2966 0.950817,-0.4556 0.06967,-0.035 0.139738,-0.071 0.209553,-0.1067 0.239385,-0.1209 0.479278,-0.2447 0.718891,-0.3721 0.114973,-0.061 0.229236,-0.1233 0.343786,-0.1857 0.181707,-0.099 0.362372,-0.1993 0.542151,-0.3005 0.14792,-0.084 0.296352,-0.1668 0.442225,-0.2513 0.126779,-0.073 0.250301,-0.1476 0.375106,-0.2215 0.176305,-0.1047 0.353667,-0.2089 0.525,-0.314 0.771632,-0.4732 1.486281,-0.9468 2.091795,-1.3848 0.0042,0 0.0086,-0.01 0.01268,-0.01 0.100266,-0.8078 0.1581,-1.6295 0.1581,-2.4654 0,-10.8936 -8.769982,-19.6636 -19.663636,-19.6636 z m 18.653906,25.904 c -0.333358,0.202 -0.674367,0.4024 -1.020917,0.5995 -0.271537,0.1545 -0.54881,0.3046 -0.825533,0.4542 -0.08078,0.044 -0.159787,0.09 -0.240873,0.1327 -0.0023,0 -0.0045,0 -0.0067,0 -0.356649,0.1897 -0.715505,0.3739 -1.074609,0.5518 -0.0011,7e-4 -0.0023,0 -0.0038,0 -0.360081,0.1783 -0.720525,0.35 -1.077594,0.513 -0.423818,0.1936 -0.854477,0.3821 -1.290873,0.5661 -0.872793,0.3679 -1.768963,0.7165 -2.683168,1.044 -1.371308,0.4912 -2.782292,0.9354 -4.213423,1.3281 -2.385219,0.6546 -4.826046,1.1659 -7.22919,1.5132 -0.480629,0.069 -0.96014,0.1325 -1.437039,0.1886 -1.430695,0.1685 -2.840749,0.2765 -4.211185,0.3192 -0.456813,0.014 -0.909347,0.021 -1.356499,0.021 -0.406447,-4e-4 -0.803181,-0.01 -1.195419,-0.019 -0.102583,0 -0.203414,-0.01 -0.305007,-0.01 -0.282303,-0.01 -0.560753,-0.024 -0.835227,-0.04 -0.118509,-0.01 -0.237946,-0.013 -0.354972,-0.021 -0.350393,-0.024 -0.696093,-0.052 -1.032848,-0.086 -0.0023,-2e-4 -0.0044,-5e-4 -0.0067,-8e-4 -0.08457,-0.01 -0.165386,-0.02 -0.249077,-0.029 -0.25964,-0.028 -0.515578,-0.059 -0.766619,-0.093 -0.136689,-0.019 -0.270849,-0.039 -0.404936,-0.06 -0.191766,-0.03 -0.380396,-0.062 -0.566762,-0.095 -0.142189,-0.025 -0.285342,-0.05 -0.4243249,-0.078 -0.2760156,-0.055 -0.5467205,-0.1132 -0.8098723,-0.1767 3.6012752,4.2215 8.9601992,6.8936 14.9693112,6.8936 8.709465,0 16.055859,-5.6083 18.653906,-13.4233 z"
       id="rect5505-21-3-1"
       inkscape:connector-curvature="0" />
    <path
       inkscape:connector-curvature="0"
       d="m 12.927274,1014.4195 a 0.38801619,0.38801619 0 0 0 -0.387784,0.3878 l 0,1.3319 c -0.448485,0.1246 -0.860589,0.3 -1.19691,0.569 a 0.38801619,0.38801619 0 0 0 -7.64e-4,8e-4 c -0.645905,0.5205 -0.984375,1.2815 -0.984375,2.1618 0,0.4716 0.09768,0.9066 0.303516,1.2835 0.195122,0.3572 0.458199,0.6716 0.780042,0.9366 0.330572,0.2722 0.785459,0.5279 1.375888,0.792 0.605208,0.2737 1.009784,0.4794 1.161115,0.5764 a 0.38801619,0.38801619 0 0 0 0.0037,0 c 0.172446,0.1082 0.286321,0.2129 0.349751,0.2983 a 0.38801619,0.38801619 0 0 0 0.0037,0 c 0.05273,0.069 0.07383,0.129 0.07383,0.2282 0,0.2157 -0.0448,0.293 -0.18196,0.3855 a 0.38801619,0.38801619 0 0 0 -0.003,0 c -0.136865,0.094 -0.391233,0.17 -0.780043,0.17 -0.323834,0 -0.694758,-0.05 -1.110405,-0.1536 l -7.64e-4,0 c -0.406464,-0.1024 -0.925013,-0.2844 -1.54517,-0.5474 a 0.38801619,0.38801619 0 0 0 -0.539169,0.3572 l 0,1.7562 a 0.38801619,0.38801619 0 0 0 0.224468,0.352 c 0.622354,0.2894 1.322856,0.4389 2.066441,0.5079 l 0,1.2036 a 0.38801619,0.38801619 0 0 0 0.387789,0.3877 l 1.527273,0 a 0.38801619,0.38801619 0 0 0 0.387784,-0.3878 l 0,-1.3497 c 0.456947,-0.1266 0.876581,-0.3006 1.220774,-0.5631 0.697354,-0.5287 1.070135,-1.3089 1.070135,-2.2118 0,-0.6534 -0.191016,-1.2445 -0.574219,-1.7145 -0.392729,-0.4858 -1.038343,-0.8987 -1.941903,-1.3095 -0.654668,-0.2973 -1.079525,-0.5109 -1.209588,-0.5929 -0.143359,-0.097 -0.231389,-0.1859 -0.27294,-0.2475 -0.03795,-0.06 -0.05891,-0.1238 -0.05891,-0.2268 0,-0.1714 0.03861,-0.2518 0.16108,-0.3534 0.1098,-0.091 0.299113,-0.1611 0.617471,-0.1611 0.28426,0 0.575008,0.035 0.872515,0.1059 a 0.38801619,0.38801619 0 0 0 7.63e-4,0 c 0.301205,0.071 0.7018,0.2014 1.190945,0.3922 a 0.38801619,0.38801619 0 0 0 0.496662,-0.2065 l 0.641335,-1.4691 a 0.38801619,0.38801619 0 0 0 -0.208061,-0.5138 c -0.498444,-0.2056 -0.979913,-0.3661 -1.445242,-0.4811 l -7.63e-4,0 c -0.182265,-0.045 -0.372385,-0.065 -0.56005,-0.092 l 0,-1.2237 a 0.38801619,0.38801619 0 0 0 -0.387784,-0.3878 l -1.527273,0 z m 6.872727,13.3636 a 0.38801619,0.38801619 0 0 0 -0.387784,0.3878 l 0,1.5273 a 0.38801619,0.38801619 0 0 0 0.387784,0.3878 l 8.018182,0 a 0.38801619,0.38801619 0 0 0 0.387784,-0.3878 l 0,-1.5273 a 0.38801619,0.38801619 0 0 0 -0.387784,-0.3878 l -8.018182,0 z"
       id="path3485"
       style="color:#000000;clip-rule:nonzero;display:inline;overflow:visible;visibility:visible;opacity:0.15;isolation:auto;mix-blend-mode:normal;color-interpolation:sRGB;color-interpolation-filters:linearRGB;solid-color:#000000;solid-opacity:1;fill:#000000;fill-opacity:1;fill-rule:nonzero;stroke:none;stroke-width:1;stroke-linecap:butt;stroke-linejoin:miter;stroke-miterlimit:4;stroke-dasharray:none;stroke-dashoffset:0;stroke-opacity:1;marker:none;color-rendering:auto;image-rendering:auto;shape-rendering:auto;text-rendering:auto;enable-background:accumulate" />
    <path
       inkscape:connector-curvature="0"
       style="color:#000000;clip-rule:nonzero;display:inline;overflow:visible;visibility:visible;opacity:0.3;isolation:auto;mix-blend-mode:normal;color-interpolation:sRGB;color-interpolation-filters:linearRGB;solid-color:#000000;solid-opacity:1;fill:#000000;fill-opacity:1;fill-rule:nonzero;stroke:none;stroke-width:1;stroke-linecap:butt;stroke-linejoin:miter;stroke-miterlimit:4;stroke-dasharray:none;stroke-dashoffset:0;stroke-opacity:1;marker:none;color-rendering:auto;image-rendering:auto;shape-rendering:auto;text-rendering:auto;enable-background:accumulate"
       d="m 12.927274,1014.8073 0,1.6168 c -0.534224,0.1041 -0.982238,0.2989 -1.342329,0.5869 -0.55984,0.4511 -0.839702,1.0713 -0.839702,1.8598 0,0.4187 0.08559,0.7848 0.256534,1.0978 0.170943,0.3129 0.39975,0.5868 0.68608,0.8225 0.28633,0.2358 0.715975,0.4822 1.288636,0.7383 0.611123,0.2764 1.014495,0.4773 1.211079,0.6033 0.200859,0.126 0.353081,0.2578 0.455647,0.396 0.102566,0.1341 0.153622,0.289 0.153622,0.4638 0,0.313 -0.117687,0.5485 -0.352735,0.707 -0.230773,0.1585 -0.564129,0.2379 -1.000035,0.2379 -0.363255,0 -0.764934,-0.055 -1.205113,-0.1648 -0.435906,-0.1098 -0.970102,-0.2985 -1.602593,-0.5668 l 0,1.7562 c 0.673389,0.3131 1.440677,0.4808 2.290909,0.5198 l 0,1.5437 1.527273,0 0,-1.6354 c 0.546161,-0.1104 1.005299,-0.3051 1.374396,-0.5869 0.611123,-0.4634 0.916513,-1.0976 0.916513,-1.9024 0,-0.5812 -0.162175,-1.0708 -0.486968,-1.4691 -0.324792,-0.4024 -0.925619,-0.8031 -1.801704,-1.2014 -0.662406,-0.3008 -1.083045,-0.5081 -1.262535,-0.6219 -0.175217,-0.1179 -0.303603,-0.2375 -0.384802,-0.3595 -0.0812,-0.126 -0.121555,-0.2726 -0.121555,-0.4392 0,-0.2683 0.10042,-0.4851 0.301278,-0.6518 0.200859,-0.1666 0.488982,-0.2506 0.865057,-0.2506 0.316246,0 0.637211,0.039 0.962003,0.1164 0.329066,0.077 0.743137,0.2128 1.243146,0.4079 l 0.641335,-1.4691 c -0.482914,-0.1992 -0.947095,-0.3534 -1.391548,-0.4631 -0.275353,-0.069 -0.560867,-0.1138 -0.854616,-0.1395 l 0,-1.5526 z m 6.872727,13.3636 0,1.5273 8.018182,0 0,-1.5273 z"
       id="rect4237-3" />
    <g
       id="g4388"
       transform="matrix(0.38181817,0,0,0.38181817,-0.43636288,650.98782)">
      <path
         id="rect4237"
         d="m 35.000003,951.86057 0,4.23438 c -1.39916,0.27279 -2.57253,0.78283 -3.515625,1.53711 -1.466247,1.18163 -2.199219,2.80589 -2.199219,4.87109 0,1.09647 0.224166,2.05531 0.671875,2.875 0.447709,0.81969 1.046963,1.53686 1.796875,2.1543 0.749913,0.61743 1.875175,1.26293 3.375,1.93359 1.60056,0.72389 2.65701,1.25007 3.171875,1.58008 0.526058,0.33001 0.924734,0.67516 1.19336,1.03711 0.268625,0.3513 0.402343,0.75709 0.402343,1.21484 0,0.8197 -0.308228,1.43639 -0.923828,1.85156 -0.604407,0.41517 -1.477482,0.62305 -2.61914,0.62305 -0.951382,0 -2.0034,-0.14421 -3.15625,-0.43164 -1.141658,-0.28742 -2.540743,-0.78178 -4.197266,-1.48437 l 0,4.5996 c 1.763638,0.82006 3.773202,1.25914 6,1.36133 l 0,4.04297 4,0 0,-4.2832 c 1.430421,-0.28918 2.632927,-0.79899 3.599609,-1.53711 1.60056,-1.21357 2.400391,-2.87464 2.400391,-4.98242 0,-1.52229 -0.424744,-2.80441 -1.275391,-3.84766 -0.850647,-1.05389 -2.424241,-2.10324 -4.71875,-3.14648 -1.734872,-0.78776 -2.836546,-1.33084 -3.30664,-1.62891 -0.458902,-0.30872 -0.795151,-0.62204 -1.007813,-0.94141 -0.212662,-0.33 -0.318359,-0.71393 -0.318359,-1.15039 0,-0.70259 0.263004,-1.27057 0.789062,-1.70703 0.526058,-0.43646 1.280666,-0.65625 2.265625,-0.65625 0.828262,0 1.668885,0.10243 2.519532,0.30469 0.861839,0.20226 1.94631,0.55738 3.255859,1.06836 l 1.679687,-3.84766 c -1.264777,-0.52162 -2.480487,-0.92546 -3.644531,-1.21289 -0.721164,-0.1798 -1.468939,-0.29791 -2.238281,-0.36523 l 0,-4.06641 z m 18,35 0,4 21,0 0,-4 z"
         style="color:#000000;clip-rule:nonzero;display:inline;overflow:visible;visibility:visible;opacity:1;isolation:auto;mix-blend-mode:normal;color-interpolation:sRGB;color-interpolation-filters:linearRGB;solid-color:#000000;solid-opacity:1;fill:#ffffff;fill-opacity:1;fill-rule:nonzero;stroke:none;stroke-width:5;stroke-linecap:butt;stroke-linejoin:miter;stroke-miterlimit:4;stroke-dasharray:none;stroke-dashoffset:0;stroke-opacity:1;marker:none;color-rendering:auto;image-rendering:auto;shape-rendering:auto;text-rendering:auto;enable-background:accumulate"
         inkscape:connector-curvature="0" />
    </g>
    <path
       style="opacity:0.15;fill:#000000;fill-opacity:1;fill-rule:evenodd;stroke:#000000;stroke-width:0.76363635;stroke-linecap:butt;stroke-linejoin:round;stroke-miterlimit:4;stroke-dasharray:none;stroke-opacity:1"
       d="m 31.704844,1019.4295 -3.965519,2.8985 0.924716,1.2655 3.673509,-2.7525 3.688423,2.763 0.923969,-1.2655 -3.933861,-2.9092 z"
       id="path4393-56"
       inkscape:connector-curvature="0"
       sodipodi:nodetypes="cccccccc" />
    <path
       style="opacity:0.3;fill:#00000f;fill-opacity:0.94117647;fill-rule:evenodd;stroke:none;stroke-width:1px;stroke-linecap:butt;stroke-linejoin:miter;stroke-opacity:1"
       d="m 31.704501,1019.5471 -3.965519,2.8985 0.924716,1.2655 3.673509,-2.7525 3.688423,2.7629 0.92397,-1.2655 -3.933862,-2.9092 z"
       id="path4393-5"
       inkscape:connector-curvature="0"
       sodipodi:nodetypes="cccccccc" />
    <path
       style="fill:#ffffff;fill-rule:evenodd;stroke:none;stroke-width:1px;stroke-linecap:butt;stroke-linejoin:miter;stroke-opacity:1"
       d="m 31.704501,1019.0477 -3.965519,2.8985 0.924716,1.2655 3.673509,-2.7525 3.688423,2.763 0.92397,-1.2656 -3.933862,-2.9092 z"
       id="path4393"
       inkscape:connector-curvature="0"
       sodipodi:nodetypes="cccccccc" />
  </g>
</svg>
