<?xml version="1.0" encoding="UTF-8" standalone="no"?>
<!-- Created with Inkscape (http://www.inkscape.org/) -->

<svg
   xmlns:dc="http://purl.org/dc/elements/1.1/"
   xmlns:cc="http://creativecommons.org/ns#"
   xmlns:rdf="http://www.w3.org/1999/02/22-rdf-syntax-ns#"
   xmlns:svg="http://www.w3.org/2000/svg"
   xmlns="http://www.w3.org/2000/svg"
   xmlns:xlink="http://www.w3.org/1999/xlink"
   xmlns:sodipodi="http://sodipodi.sourceforge.net/DTD/sodipodi-0.dtd"
   xmlns:inkscape="http://www.inkscape.org/namespaces/inkscape"
   width="24"
   height="24"
   viewBox="0 0 24 24"
   id="svg3419"
   version="1.1"
   inkscape:version="0.91 r13725"
   sodipodi:docname="com.github.muriloventuroso.easyssh.svg">
  <defs
     id="defs3421">
    <linearGradient
       gradientTransform="matrix(0.4963145,0,0,0.4963145,0.08845103,1027.9963)"
       gradientUnits="userSpaceOnUse"
       xlink:href="#linearGradient3924"
       id="linearGradient4136"
       y2="43"
       x2="23.99999"
       y1="4.999989"
       x1="23.99999" />
    <linearGradient
       id="linearGradient3924">
      <stop
         offset="0"
         style="stop-color:#ffffff;stop-opacity:1"
         id="stop3926" />
      <stop
         offset="0.06316455"
         style="stop-color:#ffffff;stop-opacity:0.23529412"
         id="stop3928" />
      <stop
         offset="0.95056331"
         style="stop-color:#ffffff;stop-opacity:0.15686275"
         id="stop3930" />
      <stop
         offset="1"
         style="stop-color:#ffffff;stop-opacity:0.39215687"
         id="stop3932" />
    </linearGradient>
    <radialGradient
       gradientTransform="matrix(0,4.3890221,-5.3883172,0,66.051119,990.50265)"
       gradientUnits="userSpaceOnUse"
       xlink:href="#linearGradient2867-449-88-871-390-598-476-591-434-148-57-177-8-3-3-6-4-8-8-8-5-7-8"
       id="radialGradient3936-3"
       fy="9.9571075"
       fx="7.1183534"
       r="8.9330635"
       cy="9.9571075"
       cx="7.1183534" />
    <linearGradient
       id="linearGradient2867-449-88-871-390-598-476-591-434-148-57-177-8-3-3-6-4-8-8-8-5-7-8">
      <stop
         offset="0"
         style="stop-color:#404648;stop-opacity:1"
         id="stop3750-1-0-7-6-6-1-3-9-3-9-2" />
      <stop
         offset="1"
         style="stop-color:#0c1011;stop-opacity:1"
         id="stop3754-1-8-5-2-7-6-7-1-9-1-0" />
    </linearGradient>
    <radialGradient
       gradientTransform="matrix(2.003784,0,0,1.4,27.98813,-17.4)"
       gradientUnits="userSpaceOnUse"
       xlink:href="#linearGradient3688-166-749-5"
       id="radialGradient4093"
       fy="43.5"
       fx="4.9929786"
       r="2.5"
       cy="43.5"
       cx="4.9929786" />
    <linearGradient
       id="linearGradient3688-166-749-5">
      <stop
         offset="0"
         style="stop-color:#181818;stop-opacity:1"
         id="stop2883-0" />
      <stop
         offset="1"
         style="stop-color:#181818;stop-opacity:0"
         id="stop2885-5" />
    </linearGradient>
    <radialGradient
       gradientTransform="matrix(2.003784,0,0,1.4,-20.01187,-104.4)"
       gradientUnits="userSpaceOnUse"
       xlink:href="#linearGradient3688-166-749-5"
       id="radialGradient4095"
       fy="43.5"
       fx="4.9929786"
       r="2.5"
       cy="43.5"
       cx="4.9929786" />
    <linearGradient
       gradientUnits="userSpaceOnUse"
       xlink:href="#linearGradient3702-501-757-0"
       id="linearGradient4097"
       y2="39.999443"
       x2="25.058096"
       y1="47.027729"
       x1="25.058096" />
    <linearGradient
       id="linearGradient3702-501-757-0">
      <stop
         offset="0"
         style="stop-color:#181818;stop-opacity:0"
         id="stop2895-0" />
      <stop
         offset="0.5"
         style="stop-color:#181818;stop-opacity:1"
         id="stop2897-2" />
      <stop
         offset="1"
         style="stop-color:#181818;stop-opacity:0"
         id="stop2899-6" />
    </linearGradient>
    <radialGradient
       gradientTransform="matrix(0.28298043,0,0,0.03087059,13.140065,1046.2951)"
       gradientUnits="userSpaceOnUse"
       xlink:href="#linearGradient3811"
       id="radialGradient4111"
       fy="93.467628"
       fx="-4.0287771"
       r="35.338131"
       cy="93.467628"
       cx="-4.0287771" />
    <linearGradient
       id="linearGradient3811">
      <stop
         offset="0"
         style="stop-color:#000000;stop-opacity:1"
         id="stop3813" />
      <stop
         offset="1"
         style="stop-color:#000000;stop-opacity:0"
         id="stop3815" />
    </linearGradient>
  </defs>
  <sodipodi:namedview
     id="base"
     pagecolor="#ffffff"
     bordercolor="#666666"
     borderopacity="1.0"
     inkscape:pageopacity="0.0"
     inkscape:pageshadow="2"
     inkscape:zoom="30.972927"
     inkscape:cx="15.467019"
     inkscape:cy="6.9608893"
     inkscape:document-units="px"
     inkscape:current-layer="layer1"
     showgrid="false"
     units="px"
     showguides="false"
     inkscape:guide-bbox="true"
     inkscape:window-width="1920"
     inkscape:window-height="1017"
     inkscape:window-x="0"
     inkscape:window-y="30"
     inkscape:window-maximized="1">
    <sodipodi:guide
       position="-5.3033009,45.583134"
       orientation="0,1"
       id="guide4410" />
    <sodipodi:guide
       position="-14.20527,56.473841"
       orientation="0,1"
       id="guide4415" />
    <sodipodi:guide
       position="-21.361607,55.691965"
       orientation="-0.5900496,0.807367"
       id="guide4417" />
    <sodipodi:guide
       position="-3.7565048,46.751123"
       orientation="-0.59590937,-0.80305169"
       id="guide4419" />
  </sodipodi:namedview>
  <metadata
     id="metadata3424">
    <rdf:RDF>
      <cc:Work
         rdf:about="">
        <dc:format>image/svg+xml</dc:format>
        <dc:type
           rdf:resource="http://purl.org/dc/dcmitype/StillImage" />
        <dc:title />
      </cc:Work>
    </rdf:RDF>
  </metadata>
  <g
     inkscape:label="Camada 1"
     inkscape:groupmode="layer"
     id="layer1"
     transform="translate(0,-1028.3622)">
    <path
       style="color:#000000;display:inline;overflow:visible;visibility:visible;opacity:0.9;fill:url(#radialGradient3936-3);fill-opacity:1;fill-rule:nonzero;stroke:none;stroke-width:0.99999994;marker:none;enable-background:accumulate"
       d="m 12,1030.5442 c -5.1874545,0 -9.3636363,4.1762 -9.3636363,9.3636 0,1.5043 0.3531353,2.9223 0.978338,4.1794 0.1864029,0.1488 0.4477073,0.2989 0.7865767,0.4296 0.8627786,0.3328 2.1868409,0.5344 3.7819602,0.5363 3.1776514,0 7.1083294,-0.8687 10.1470174,-2.2564 1.036009,-0.4732 2.185957,-1.1556 2.958097,-1.7149 0.04774,-0.3847 0.07528,-0.7759 0.07528,-1.174 0,-5.1874 -4.176182,-9.3636 -9.363636,-9.3636 z m 8.882813,12.3352 c -0.640882,0.3885 -1.343291,0.7642 -2.023793,1.0749 -3.229099,1.4747 -7.269975,2.3746 -10.6768467,2.3715 -1.2546989,-0 -2.369962,-0.1099 -3.3103692,-0.337 1.7148454,2.0102 4.2667137,3.2827 7.1281959,3.2827 4.147364,0 7.645647,-2.6707 8.882813,-6.3921 z"
       id="rect5505-21-3"
       inkscape:connector-curvature="0" />
    <rect
       width="18.363636"
       height="18.363636"
       rx="9.181818"
       ry="8.5876627"
       x="2.8181796"
       y="1030.726"
       id="rect6741-7"
       style="opacity:0.3;fill:none;stroke:url(#linearGradient4136);stroke-width:0.18181817;stroke-linecap:round;stroke-linejoin:round;stroke-miterlimit:4;stroke-dasharray:none;stroke-dashoffset:0;stroke-opacity:1" />
    <path
       style="color:#000000;display:inline;overflow:visible;visibility:visible;opacity:0.7;fill:none;stroke:#000000;stroke-width:0.18181819;stroke-linecap:round;stroke-linejoin:round;stroke-miterlimit:4;stroke-dasharray:none;stroke-dashoffset:0;stroke-opacity:1;marker:none;enable-background:accumulate"
       d="m 12,1030.5442 c -5.1874545,0 -9.3636363,4.1762 -9.3636363,9.3636 0,1.5043 0.3531353,2.9223 0.978338,4.1794 0.031074,0.025 0.067379,0.049 0.1026278,0.074 0.02722,0.019 0.054053,0.038 0.083807,0.057 0.03066,0.02 0.06361,0.039 0.096946,0.058 0.047114,0.027 0.096732,0.054 0.1491479,0.081 0.025853,0.013 0.050959,0.026 0.078125,0.04 0.086143,0.041 0.1769736,0.081 0.2759232,0.1196 0.323542,0.1248 0.7119382,0.2311 1.1551848,0.3154 0.2954976,0.056 0.615407,0.1026 0.9566761,0.1381 0.3412689,0.035 0.7037764,0.06 1.084872,0.073 0.190548,0.01 0.3858375,0.01 0.5852273,0.01 0.7944131,7e-4 1.6357418,-0.053 2.4985792,-0.1563 0.21571,-0.026 0.432945,-0.054 0.650923,-0.086 0.435956,-0.064 0.875486,-0.1391 1.315696,-0.2258 0.880421,-0.1735 1.762921,-0.3916 2.621804,-0.6492 0.429442,-0.1287 0.852982,-0.2674 1.267401,-0.4151 0.621628,-0.2216 1.22286,-0.4635 1.792614,-0.7237 0.148877,-0.068 0.300428,-0.1413 0.452769,-0.217 0.03318,-0.016 0.06654,-0.034 0.09979,-0.051 0.113992,-0.058 0.228227,-0.1165 0.342329,-0.1772 0.05475,-0.029 0.10916,-0.059 0.163707,-0.088 0.08653,-0.047 0.172558,-0.095 0.258167,-0.1431 0.07044,-0.04 0.14112,-0.079 0.210584,-0.1197 0.06037,-0.035 0.119191,-0.07 0.178622,-0.1055 0.08395,-0.05 0.168412,-0.099 0.25,-0.1495 0.367443,-0.2253 0.707752,-0.4508 0.996092,-0.6594 0.002,0 0.0041,0 0.006,0 0.04775,-0.3847 0.07529,-0.7759 0.07529,-1.174 0,-5.1874 -4.176182,-9.3636 -9.363636,-9.3636 z m 8.882813,12.3352 c -0.158742,0.096 -0.321128,0.1917 -0.486151,0.2855 -0.129304,0.074 -0.261338,0.1451 -0.393111,0.2163 -0.03847,0.021 -0.07609,0.043 -0.114702,0.063 -0.0011,6e-4 -0.0021,0 -0.0032,0 -0.169833,0.09 -0.340716,0.178 -0.511718,0.2628 -5.46e-4,3e-4 -0.0011,7e-4 -0.0018,10e-4 -0.171468,0.085 -0.343108,0.1667 -0.51314,0.2444 -0.201819,0.092 -0.406895,0.1819 -0.614702,0.2695 -0.415616,0.1752 -0.842363,0.3412 -1.277699,0.4971 -0.653004,0.234 -1.324901,0.4455 -2.006392,0.6325 -1.135818,0.3117 -2.298117,0.5551 -3.442472,0.7205 -0.228871,0.033 -0.457209,0.063 -0.684304,0.09 -0.681283,0.08 -1.3527372,0.1316 -2.0053262,0.152 -0.2175298,0.01 -0.4330223,0.01 -0.6459518,0.01 -0.193546,-2e-4 -0.3824669,0 -0.569247,-0.01 -0.048849,0 -0.096864,0 -0.1452415,-0.01 -0.13443,0 -0.2670255,-0.011 -0.3977273,-0.019 -0.056433,0 -0.1133076,-0.01 -0.1690341,-0.01 -0.166854,-0.011 -0.331473,-0.025 -0.4918324,-0.041 -0.00109,-10e-5 -0.00211,-3e-4 -0.0032,-4e-4 -0.040271,0 -0.078755,-0.01 -0.118608,-0.014 -0.1236382,-0.014 -0.2455132,-0.028 -0.3650567,-0.044 -0.06509,-0.01 -0.1289758,-0.019 -0.1928267,-0.028 -0.091317,-0.014 -0.1811409,-0.029 -0.2698864,-0.045 -0.067709,-0.012 -0.1358773,-0.024 -0.2020596,-0.037 -0.131436,-0.026 -0.2603431,-0.054 -0.3856535,-0.084 1.7148931,2.0102 4.2667614,3.2827 7.1282432,3.2827 4.147364,0 7.645647,-2.6707 8.882813,-6.3921 z"
       id="rect5505-21-3-1"
       inkscape:connector-curvature="0" />
    <path
       inkscape:connector-curvature="0"
       d="m 6.7272733,1033.7228 a 0.18476962,0.18476962 0 0 0 -0.1846591,0.1847 l 0,0.6342 c -0.2135643,0.059 -0.4098043,0.1429 -0.5699574,0.271 a 0.18476962,0.18476962 0 0 0 -3.636e-4,3e-4 c -0.3075739,0.2479 -0.46875,0.6103 -0.46875,1.0295 0,0.2245 0.046512,0.4317 0.1445312,0.6112 0.092916,0.1701 0.2181904,0.3198 0.3714489,0.446 0.1574151,0.1296 0.374028,0.2513 0.6551848,0.3771 0.2881943,0.1304 0.4808494,0.2283 0.5529118,0.2745 a 0.18476962,0.18476962 0 0 0 0.00178,0 c 0.082117,0.052 0.1363433,0.1014 0.1665482,0.1421 a 0.18476962,0.18476962 0 0 0 0.00178,0 c 0.025111,0.033 0.035156,0.061 0.035156,0.1086 0,0.1028 -0.021335,0.1396 -0.086648,0.1836 a 0.18476962,0.18476962 0 0 0 -0.00142,8e-4 c -0.065173,0.045 -0.1863012,0.081 -0.3714487,0.081 -0.1542067,0 -0.3308371,-0.024 -0.5287643,-0.073 l -3.637e-4,0 c -0.1935545,-0.049 -0.4404823,-0.1354 -0.7357954,-0.2607 a 0.18476962,0.18476962 0 0 0 -0.2567471,0.1701 l 0,0.8363 a 0.18476962,0.18476962 0 0 0 0.1068893,0.1676 c 0.2963594,0.1378 0.6299318,0.209 0.9840198,0.2419 l 0,0.5731 a 0.18476962,0.18476962 0 0 0 0.1846614,0.1847 l 0.7272727,0 a 0.18476962,0.18476962 0 0 0 0.1846591,-0.1847 l 0,-0.6428 c 0.217594,-0.06 0.4174197,-0.1431 0.5813211,-0.2681 0.3320731,-0.2518 0.509588,-0.6233 0.509588,-1.0532 0,-0.3112 -0.09096,-0.5926 -0.2734374,-0.8164 -0.1870139,-0.2314 -0.4944495,-0.428 -0.924716,-0.6236 -0.3117468,-0.1416 -0.5140595,-0.2433 -0.5759944,-0.2823 -0.068266,-0.046 -0.1101849,-0.089 -0.1299714,-0.1179 -0.018073,-0.028 -0.028054,-0.059 -0.028054,-0.108 0,-0.082 0.018386,-0.1199 0.076704,-0.1683 0.052286,-0.043 0.1424349,-0.077 0.294034,-0.077 0.135362,0 0.2738131,0.017 0.4154831,0.05 a 0.18476962,0.18476962 0 0 0 3.636e-4,0 c 0.1434309,0.034 0.3341902,0.096 0.5671164,0.1868 a 0.18476962,0.18476962 0 0 0 0.2365058,-0.098 l 0.3053976,-0.6995 a 0.18476962,0.18476962 0 0 0 -0.099077,-0.2447 c -0.2373542,-0.098 -0.4666249,-0.1743 -0.6882102,-0.2291 l -3.636e-4,0 c -0.086793,-0.022 -0.177326,-0.031 -0.2666904,-0.044 l 0,-0.5828 a 0.18476962,0.18476962 0 0 0 -0.1846591,-0.1846 l -0.7272727,0 z m 3.2727277,6.3637 a 0.18476962,0.18476962 0 0 0 -0.1846595,0.1846 l 0,0.7273 a 0.18476962,0.18476962 0 0 0 0.1846595,0.1847 l 3.818181,0 a 0.18476962,0.18476962 0 0 0 0.184659,-0.1847 l 0,-0.7273 a 0.18476962,0.18476962 0 0 0 -0.184659,-0.1846 l -3.818181,0 z"
       id="path3485"
       style="color:#000000;clip-rule:nonzero;display:inline;overflow:visible;visibility:visible;opacity:0.15;isolation:auto;mix-blend-mode:normal;color-interpolation:sRGB;color-interpolation-filters:linearRGB;solid-color:#000000;solid-opacity:1;fill:#000000;fill-opacity:1;fill-rule:nonzero;stroke:none;stroke-width:1;stroke-linecap:butt;stroke-linejoin:miter;stroke-miterlimit:4;stroke-dasharray:none;stroke-dashoffset:0;stroke-opacity:1;marker:none;color-rendering:auto;image-rendering:auto;shape-rendering:auto;text-rendering:auto;enable-background:accumulate" />
    <path
       inkscape:connector-curvature="0"
       style="color:#000000;clip-rule:nonzero;display:inline;overflow:visible;visibility:visible;opacity:0.3;isolation:auto;mix-blend-mode:normal;color-interpolation:sRGB;color-interpolation-filters:linearRGB;solid-color:#000000;solid-opacity:1;fill:#000000;fill-opacity:1;fill-rule:nonzero;stroke:none;stroke-width:1;stroke-linecap:butt;stroke-linejoin:miter;stroke-miterlimit:4;stroke-dasharray:none;stroke-dashoffset:0;stroke-opacity:1;marker:none;color-rendering:auto;image-rendering:auto;shape-rendering:auto;text-rendering:auto;enable-background:accumulate"
       d="m 6.7272733,1033.9075 0,0.7699 c -0.2543927,0.05 -0.4677327,0.1423 -0.6392045,0.2794 -0.2665904,0.2149 -0.399858,0.5102 -0.399858,0.8857 0,0.1994 0.040757,0.3737 0.1221591,0.5227 0.081402,0.1491 0.1903569,0.2795 0.3267045,0.3917 0.1363478,0.1123 0.3409409,0.2296 0.6136364,0.3516 0.2910109,0.1316 0.4830927,0.2273 0.5767045,0.2873 0.095647,0.06 0.1681335,0.1227 0.2169746,0.1885 0.048841,0.064 0.073153,0.1377 0.073153,0.2209 0,0.149 -0.056041,0.2612 -0.1679687,0.3367 -0.1098922,0.075 -0.2686331,0.1132 -0.4762073,0.1132 -0.1729785,0 -0.3642545,-0.026 -0.5738636,-0.078 -0.2075742,-0.052 -0.4619533,-0.1422 -0.7631393,-0.2699 l 0,0.8363 c 0.3206615,0.1491 0.6860368,0.2289 1.0909091,0.2475 l 0,0.7351 0.7272727,0 0,-0.7788 c 0.2600766,-0.053 0.478714,-0.1453 0.6544744,-0.2795 0.2910109,-0.2206 0.4364347,-0.5226 0.4364347,-0.9059 0,-0.2767 -0.077226,-0.5099 -0.2318892,-0.6995 -0.1546631,-0.1917 -0.4407711,-0.3824 -0.8579546,-0.5721 -0.3154313,-0.1433 -0.5157356,-0.242 -0.6012072,-0.2962 -0.083437,-0.056 -0.144573,-0.1131 -0.1832388,-0.1712 -0.038666,-0.06 -0.057883,-0.1298 -0.057883,-0.2091 0,-0.1278 0.047819,-0.231 0.1434658,-0.3104 0.095647,-0.079 0.2328484,-0.1193 0.4119318,-0.1193 0.1505931,0 0.3034336,0.019 0.4580967,0.055 0.156698,0.037 0.3538746,0.1013 0.5919744,0.1942 l 0.3053976,-0.6995 c -0.2299594,-0.095 -0.4509976,-0.1683 -0.662642,-0.2206 -0.1311207,-0.033 -0.2670798,-0.054 -0.4069602,-0.066 l 0,-0.7393 z m 3.2727277,6.3636 0,0.7273 3.818181,0 0,-0.7273 z"
       id="rect4237-3" />
    <g
       id="g4388"
       transform="matrix(0.18181818,0,0,0.18181818,0.36363648,860.66011)">
      <path
         id="rect4237"
         d="m 35.000003,951.86057 0,4.23438 c -1.39916,0.27279 -2.57253,0.78283 -3.515625,1.53711 -1.466247,1.18163 -2.199219,2.80589 -2.199219,4.87109 0,1.09647 0.224166,2.05531 0.671875,2.875 0.447709,0.81969 1.046963,1.53686 1.796875,2.1543 0.749913,0.61743 1.875175,1.26293 3.375,1.93359 1.60056,0.72389 2.65701,1.25007 3.171875,1.58008 0.526058,0.33001 0.924734,0.67516 1.19336,1.03711 0.268625,0.3513 0.402343,0.75709 0.402343,1.21484 0,0.8197 -0.308228,1.43639 -0.923828,1.85156 -0.604407,0.41517 -1.477482,0.62305 -2.61914,0.62305 -0.951382,0 -2.0034,-0.14421 -3.15625,-0.43164 -1.141658,-0.28742 -2.540743,-0.78178 -4.197266,-1.48437 l 0,4.5996 c 1.763638,0.82006 3.773202,1.25914 6,1.36133 l 0,4.04297 4,0 0,-4.2832 c 1.430421,-0.28918 2.632927,-0.79899 3.599609,-1.53711 1.60056,-1.21357 2.400391,-2.87464 2.400391,-4.98242 0,-1.52229 -0.424744,-2.80441 -1.275391,-3.84766 -0.850647,-1.05389 -2.424241,-2.10324 -4.71875,-3.14648 -1.734872,-0.78776 -2.836546,-1.33084 -3.30664,-1.62891 -0.458902,-0.30872 -0.795151,-0.62204 -1.007813,-0.94141 -0.212662,-0.33 -0.318359,-0.71393 -0.318359,-1.15039 0,-0.70259 0.263004,-1.27057 0.789062,-1.70703 0.526058,-0.43646 1.280666,-0.65625 2.265625,-0.65625 0.828262,0 1.668885,0.10243 2.519532,0.30469 0.861839,0.20226 1.94631,0.55738 3.255859,1.06836 l 1.679687,-3.84766 c -1.264777,-0.52162 -2.480487,-0.92546 -3.644531,-1.21289 -0.721164,-0.1798 -1.468939,-0.29791 -2.238281,-0.36523 l 0,-4.06641 z m 18,35 0,4 21,0 0,-4 z"
         style="color:#000000;clip-rule:nonzero;display:inline;overflow:visible;visibility:visible;opacity:1;isolation:auto;mix-blend-mode:normal;color-interpolation:sRGB;color-interpolation-filters:linearRGB;solid-color:#000000;solid-opacity:1;fill:#ffffff;fill-opacity:1;fill-rule:nonzero;stroke:none;stroke-width:5;stroke-linecap:butt;stroke-linejoin:miter;stroke-miterlimit:4;stroke-dasharray:none;stroke-dashoffset:0;stroke-opacity:1;marker:none;color-rendering:auto;image-rendering:auto;shape-rendering:auto;text-rendering:auto;enable-background:accumulate"
         inkscape:connector-curvature="0" />
    </g>
    <path
       style="opacity:0.15;fill:#000000;fill-opacity:1;fill-rule:evenodd;stroke:#000000;stroke-width:0.36363637;stroke-linecap:butt;stroke-linejoin:round;stroke-miterlimit:4;stroke-dasharray:none;stroke-opacity:1"
       d="m 15.668973,1036.1086 -1.888342,1.3802 0.440341,0.6026 1.74929,-1.3107 1.756392,1.3157 0.439985,-0.6026 -1.873267,-1.3854 z"
       id="path4393-56"
       inkscape:connector-curvature="0"
       sodipodi:nodetypes="cccccccc" />
    <path
       style="opacity:0.3;fill:#00000f;fill-opacity:0.94117647;fill-rule:evenodd;stroke:none;stroke-width:1px;stroke-linecap:butt;stroke-linejoin:miter;stroke-opacity:1"
       d="m 15.66881,1036.1645 -1.888342,1.3803 0.440341,0.6026 1.74929,-1.3107 1.756391,1.3157 0.439986,-0.6027 -1.873267,-1.3853 z"
       id="path4393-5"
       inkscape:connector-curvature="0"
       sodipodi:nodetypes="cccccccc" />
    <path
       style="fill:#ffffff;fill-rule:evenodd;stroke:none;stroke-width:1px;stroke-linecap:butt;stroke-linejoin:miter;stroke-opacity:1"
       d="m 15.66881,1035.9267 -1.888342,1.3803 0.440341,0.6026 1.74929,-1.3107 1.756391,1.3157 0.439986,-0.6027 -1.873267,-1.3853 z"
       id="path4393"
       inkscape:connector-curvature="0"
       sodipodi:nodetypes="cccccccc" />
  </g>
</svg>
