<?xml version="1.0" encoding="UTF-8" standalone="no"?>
<!-- Created with Inkscape (http://www.inkscape.org/) -->

<svg
   xmlns:dc="http://purl.org/dc/elements/1.1/"
   xmlns:cc="http://creativecommons.org/ns#"
   xmlns:rdf="http://www.w3.org/1999/02/22-rdf-syntax-ns#"
   xmlns:svg="http://www.w3.org/2000/svg"
   xmlns="http://www.w3.org/2000/svg"
   xmlns:xlink="http://www.w3.org/1999/xlink"
   xmlns:sodipodi="http://sodipodi.sourceforge.net/DTD/sodipodi-0.dtd"
   xmlns:inkscape="http://www.inkscape.org/namespaces/inkscape"
   width="24"
   height="24"
   viewBox="0 0 24 24"
   id="svg3419"
   version="1.1"
   inkscape:version="0.91 r13725"
   sodipodi:docname="com.github.muriloventuroso.easyssh.svg">
  <defs
     id="defs3421">
    <linearGradient
       gradientTransform="matrix(2.7297298,0,0,2.7297298,-1.51352,920.34889)"
       gradientUnits="userSpaceOnUse"
       xlink:href="#linearGradient3924"
       id="linearGradient4136"
       y2="43"
       x2="23.99999"
       y1="4.999989"
       x1="23.99999" />
    <linearGradient
       id="linearGradient3924">
      <stop
         offset="0"
         style="stop-color:#ffffff;stop-opacity:1"
         id="stop3926" />
      <stop
         offset="0.06316455"
         style="stop-color:#ffffff;stop-opacity:0.23529412"
         id="stop3928" />
      <stop
         offset="0.95056331"
         style="stop-color:#ffffff;stop-opacity:0.15686275"
         id="stop3930" />
      <stop
         offset="1"
         style="stop-color:#ffffff;stop-opacity:0.39215687"
         id="stop3932" />
    </linearGradient>
    <radialGradient
       gradientTransform="matrix(0,24.139622,-29.635745,0,361.28116,-210.22844)"
       gradientUnits="userSpaceOnUse"
       xlink:href="#linearGradient2867-449-88-871-390-598-476-591-434-148-57-177-8-3-3-6-4-8-8-8-5-7-8"
       id="radialGradient3936-3"
       fy="9.9571075"
       fx="7.1183534"
       r="8.9330635"
       cy="9.9571075"
       cx="7.1183534" />
    <linearGradient
       id="linearGradient2867-449-88-871-390-598-476-591-434-148-57-177-8-3-3-6-4-8-8-8-5-7-8">
      <stop
         offset="0"
         style="stop-color:#404648;stop-opacity:1"
         id="stop3750-1-0-7-6-6-1-3-9-3-9-2" />
      <stop
         offset="1"
         style="stop-color:#0c1011;stop-opacity:1"
         id="stop3754-1-8-5-2-7-6-7-1-9-1-0" />
    </linearGradient>
    <radialGradient
       gradientTransform="matrix(2.003784,0,0,1.4,27.98813,-17.4)"
       gradientUnits="userSpaceOnUse"
       xlink:href="#linearGradient3688-166-749-5"
       id="radialGradient4093"
       fy="43.5"
       fx="4.9929786"
       r="2.5"
       cy="43.5"
       cx="4.9929786" />
    <linearGradient
       id="linearGradient3688-166-749-5">
      <stop
         offset="0"
         style="stop-color:#181818;stop-opacity:1"
         id="stop2883-0" />
      <stop
         offset="1"
         style="stop-color:#181818;stop-opacity:0"
         id="stop2885-5" />
    </linearGradient>
    <radialGradient
       gradientTransform="matrix(2.003784,0,0,1.4,-20.01187,-104.4)"
       gradientUnits="userSpaceOnUse"
       xlink:href="#linearGradient3688-166-749-5"
       id="radialGradient4095"
       fy="43.5"
       fx="4.9929786"
       r="2.5"
       cy="43.5"
       cx="4.9929786" />
    <linearGradient
       gradientUnits="userSpaceOnUse"
       xlink:href="#linearGradient3702-501-757-0"
       id="linearGradient4097"
       y2="39.999443"
       x2="25.058096"
       y1="47.027729"
       x1="25.058096" />
    <linearGradient
       id="linearGradient3702-501-757-0">
      <stop
         offset="0"
         style="stop-color:#181818;stop-opacity:0"
         id="stop2895-0" />
      <stop
         offset="0.5"
         style="stop-color:#181818;stop-opacity:1"
         id="stop2897-2" />
      <stop
         offset="1"
         style="stop-color:#181818;stop-opacity:0"
         id="stop2899-6" />
    </linearGradient>
    <radialGradient
       gradientTransform="matrix(1.5563924,0,0,0.16978827,70.270358,1020.9927)"
       gradientUnits="userSpaceOnUse"
       xlink:href="#linearGradient3811"
       id="radialGradient4111"
       fy="93.467628"
       fx="-4.0287771"
       r="35.338131"
       cy="93.467628"
       cx="-4.0287771" />
    <linearGradient
       id="linearGradient3811">
      <stop
         offset="0"
         style="stop-color:#000000;stop-opacity:1"
         id="stop3813" />
      <stop
         offset="1"
         style="stop-color:#000000;stop-opacity:0"
         id="stop3815" />
    </linearGradient>
  </defs>
  <sodipodi:namedview
     id="base"
     pagecolor="#ffffff"
     bordercolor="#666666"
     borderopacity="1.0"
     inkscape:pageopacity="0.0"
     inkscape:pageshadow="2"
     inkscape:zoom="3.8716159"
     inkscape:cx="32.796983"
     inkscape:cy="37.285306"
     inkscape:document-units="px"
     inkscape:current-layer="layer1"
     showgrid="false"
     units="px"
     showguides="false"
     inkscape:guide-bbox="true"
     inkscape:window-width="1920"
     inkscape:window-height="1017"
     inkscape:window-x="0"
     inkscape:window-y="30"
     inkscape:window-maximized="1">
    <sodipodi:guide
       position="-5.3033009,45.583134"
       orientation="0,1"
       id="guide4410" />
    <sodipodi:guide
       position="-14.20527,56.473841"
       orientation="0,1"
       id="guide4415" />
    <sodipodi:guide
       position="-21.361607,55.691965"
       orientation="-0.5900496,0.807367"
       id="guide4417" />
    <sodipodi:guide
       position="-3.7565048,46.751123"
       orientation="-0.59590937,-0.80305169"
       id="guide4419" />
  </sodipodi:namedview>
  <metadata
     id="metadata3424">
    <rdf:RDF>
      <cc:Work
         rdf:about="">
        <dc:format>image/svg+xml</dc:format>
        <dc:type
           rdf:resource="http://purl.org/dc/dcmitype/StillImage" />
        <dc:title></dc:title>
      </cc:Work>
    </rdf:RDF>
  </metadata>
  <g
     inkscape:label="Camada 1"
     inkscape:groupmode="layer"
     id="layer1"
     transform="translate(0,-1028.3622)">
    <g
       id="g3417"
       transform="matrix(0.18181818,0,0,0.18181818,0.36363648,860.66011)">
      <path
         style="color:#000000;display:inline;overflow:visible;visibility:visible;opacity:0.2;fill:url(#radialGradient4111);fill-opacity:1;fill-rule:nonzero;stroke:none;stroke-width:1;marker:none;enable-background:accumulate"
         id="path3041"
         d="m 119,1036.8624 a 55.000002,6.0000002 0 0 1 -110,0 55.000002,6.0000002 0 1 1 110,0 z"
         inkscape:connector-curvature="0" />
      <g
         style="display:inline"
         id="g2036"
         transform="matrix(2.6999989,0,0,0.55555607,-0.80001,1013.7513)">
        <g
           style="opacity:0.4"
           id="g3712"
           transform="matrix(1.052632,0,0,1.285713,-1.263158,-13.42854)">
          <rect
             style="fill:url(#radialGradient4093);fill-opacity:1;stroke:none"
             id="rect2801"
             y="40"
             x="38"
             height="7"
             width="5" />
          <rect
             style="fill:url(#radialGradient4095);fill-opacity:1;stroke:none"
             id="rect3696"
             transform="scale(-1,-1)"
             y="-47"
             x="-10"
             height="7"
             width="5" />
          <rect
             style="fill:url(#linearGradient4097);fill-opacity:1;stroke:none"
             id="rect3700"
             y="40"
             x="10"
             height="7.0000005"
             width="28" />
        </g>
      </g>
      <path
         inkscape:connector-curvature="0"
         id="rect5505-21-3"
         transform="translate(0,924.3622)"
         d="m 64,10 c -28.531,0 -51.5,22.969 -51.5,51.5 0,8.273694 1.942244,16.072589 5.380859,22.986328 1.025216,0.818455 2.46239,1.644442 4.326172,2.363281 4.745282,1.8303 12.027625,2.939219 20.800781,2.949219 17.477085,0.0159 39.095813,-4.777556 55.808594,-12.410156 5.698054,-2.602291 12.022764,-6.355586 16.269534,-9.431641 C 115.34853,65.841198 115.5,63.689189 115.5,61.5 115.5,32.969 92.531,10 64,10 Z m 48.85547,67.84375 c -3.52485,2.136738 -7.3881,4.202819 -11.13086,5.912109 C 83.964563,91.866659 61.739749,96.815828 43.001953,96.798828 36.101109,96.792322 29.967162,96.194689 24.794922,94.945312 34.226572,106.00164 48.261848,113 64,113 c 22.810503,0 42.05106,-14.688397 48.85547,-35.15625 z"
         style="color:#000000;display:inline;overflow:visible;visibility:visible;opacity:0.9;fill:url(#radialGradient3936-3);fill-opacity:1;fill-rule:nonzero;stroke:none;stroke-width:0.99999994;marker:none;enable-background:accumulate" />
      <rect
         style="opacity:0.3;fill:none;stroke:url(#linearGradient4136);stroke-width:0.99999994;stroke-linecap:round;stroke-linejoin:round;stroke-miterlimit:4;stroke-dasharray:none;stroke-dashoffset:0;stroke-opacity:1"
         id="rect6741-7"
         y="935.36237"
         x="13.499988"
         ry="47.232143"
         rx="50.5"
         height="101"
         width="101" />
      <path
         inkscape:connector-curvature="0"
         id="rect5505-21-3-1"
         transform="translate(0,924.3622)"
         d="m 64,10 c -28.531,0 -51.5,22.969 -51.5,51.5 0,8.273694 1.942244,16.072589 5.380859,22.986328 0.170905,0.136438 0.370585,0.271878 0.564453,0.408203 0.149711,0.104823 0.29729,0.210262 0.460938,0.314453 0.168627,0.107982 0.349852,0.213528 0.533203,0.320313 0.259126,0.149923 0.532028,0.29903 0.820313,0.445312 0.142193,0.07257 0.280276,0.145399 0.429687,0.216797 0.473787,0.225262 0.973355,0.448303 1.517578,0.658203 1.779481,0.686363 3.91566,1.270796 6.353516,1.734375 1.625237,0.309053 3.384739,0.564482 5.261719,0.759766 1.876979,0.195284 3.87077,0.330679 5.966796,0.400391 1.048014,0.03486 2.122106,0.05344 3.21875,0.05469 4.369272,0.004 8.99658,-0.292961 13.742188,-0.859375 1.186402,-0.141603 2.381199,-0.299762 3.580078,-0.474609 2.397757,-0.349696 4.815171,-0.765288 7.236328,-1.242188 4.842315,-0.953799 9.696061,-2.153875 14.419922,-3.570312 2.361931,-0.708219 4.691399,-1.47087 6.970703,-2.283203 3.418956,-1.218501 6.725729,-2.549357 9.859375,-3.980469 0.818828,-0.373955 1.652354,-0.776901 2.490234,-1.19336 0.18247,-0.09074 0.36598,-0.186864 0.54883,-0.279296 0.62696,-0.316728 1.25525,-0.640877 1.88281,-0.97461 0.30112,-0.160309 0.60038,-0.322894 0.90039,-0.486328 0.4759,-0.25893 0.94907,-0.521934 1.41992,-0.787109 0.38741,-0.218515 0.77616,-0.436709 1.15821,-0.658203 0.33204,-0.192201 0.65555,-0.386419 0.98242,-0.580078 0.46175,-0.274042 0.92627,-0.547076 1.375,-0.822266 2.02094,-1.239381 3.89264,-2.479781 5.47851,-3.626953 0.0109,-0.0079 0.0224,-0.01558 0.0332,-0.02344 C 115.34853,65.841198 115.5,63.689189 115.5,61.5 115.5,32.969 92.531,10 64,10 Z m 48.85547,67.84375 c -0.87308,0.529256 -1.7662,1.054124 -2.67383,1.570312 -0.71117,0.404498 -1.43736,0.797711 -2.16211,1.189454 -0.21158,0.114351 -0.41849,0.234623 -0.63086,0.347656 -0.006,0.0032 -0.0117,0.0066 -0.0176,0.0098 -0.93408,0.496944 -1.87394,0.979322 -2.81445,1.445312 -0.003,0.0017 -0.006,0.0042 -0.01,0.0059 -0.94307,0.467127 -1.88709,0.916662 -2.82227,1.34375 -1.11,0.506925 -2.237918,1.000638 -3.38086,1.482422 -2.285885,0.963569 -4.632996,1.876657 -7.027344,2.734375 -3.591521,1.286578 -7.286956,2.449926 -11.035156,3.478516 -6.247001,1.714317 -12.639644,3.053318 -18.933594,3.96289 -1.25879,0.181916 -2.514652,0.347059 -3.763672,0.494141 -3.747059,0.441244 -7.440057,0.724052 -11.029296,0.835938 -1.196414,0.0373 -2.381623,0.05575 -3.552735,0.05469 -1.064503,-0.001 -2.103568,-0.02142 -3.130859,-0.05078 -0.26867,-0.0076 -0.532752,-0.01779 -0.798828,-0.02734 -0.739365,-0.02677 -1.46864,-0.0615 -2.1875,-0.103515 -0.31038,-0.01802 -0.623192,-0.03382 -0.929688,-0.05469 -0.917697,-0.06289 -1.823101,-0.135794 -2.705078,-0.224609 -0.006,-6.01e-4 -0.01161,-0.0014 -0.01758,-0.002 -0.221492,-0.02224 -0.433152,-0.05228 -0.652344,-0.07617 -0.68001,-0.07447 -1.350323,-0.153665 -2.007812,-0.244141 -0.357994,-0.04908 -0.709367,-0.102376 -1.060547,-0.15625 -0.502243,-0.07728 -0.996275,-0.16091 -1.484375,-0.248047 -0.372401,-0.06634 -0.747325,-0.130971 -1.111328,-0.203125 -0.722898,-0.14348 -1.431887,-0.29641 -2.121094,-0.462891 C 34.226572,106.00164 48.261848,113 64,113 c 22.810503,0 42.05106,-14.688397 48.85547,-35.15625 z"
         style="color:#000000;display:inline;overflow:visible;visibility:visible;opacity:0.7;fill:none;stroke:#000000;stroke-width:1;stroke-linecap:round;stroke-linejoin:round;stroke-miterlimit:4;stroke-dasharray:none;stroke-dashoffset:0;stroke-opacity:1;marker:none;enable-background:accumulate" />
      <path
         style="color:#000000;clip-rule:nonzero;display:inline;overflow:visible;visibility:visible;opacity:0.15;isolation:auto;mix-blend-mode:normal;color-interpolation:sRGB;color-interpolation-filters:linearRGB;solid-color:#000000;solid-opacity:1;fill:#000000;fill-opacity:1;fill-rule:nonzero;stroke:none;stroke-width:1;stroke-linecap:butt;stroke-linejoin:miter;stroke-miterlimit:4;stroke-dasharray:none;stroke-dashoffset:0;stroke-opacity:1;marker:none;color-rendering:auto;image-rendering:auto;shape-rendering:auto;text-rendering:auto;enable-background:accumulate"
         id="path3485"
         d="m 35.000003,951.84494 a 1.0162329,1.0162329 0 0 0 -1.015625,1.01563 l 0,3.48828 c -1.174604,0.32637 -2.253924,0.78575 -3.134766,1.49024 a 1.0162329,1.0162329 0 0 0 -0.002,0.002 c -1.691656,1.36329 -2.578125,3.35647 -2.578125,5.6621 0,1.23497 0.255817,2.3743 0.794922,3.36133 0.511035,0.93564 1.200047,1.75912 2.042969,2.45313 0.865783,0.71283 2.057154,1.38246 3.603516,2.07422 1.585069,0.71688 2.644672,1.25572 3.041015,1.50976 a 1.0162329,1.0162329 0 0 0 0.0098,0.006 c 0.451644,0.28333 0.749888,0.55741 0.916015,0.78125 a 1.0162329,1.0162329 0 0 0 0.0098,0.0117 c 0.138108,0.18061 0.193359,0.3378 0.193359,0.59766 0,0.56496 -0.11734,0.7675 -0.476562,1.00976 a 1.0162329,1.0162329 0 0 0 -0.0078,0.004 c -0.358454,0.24623 -1.024657,0.44532 -2.042968,0.44532 -0.848137,0 -1.819604,-0.13109 -2.908204,-0.40235 l -0.002,0 c -1.06455,-0.26813 -2.422653,-0.7447 -4.046875,-1.43359 a 1.0162329,1.0162329 0 0 0 -1.412109,0.93555 l 0,4.59961 a 1.0162329,1.0162329 0 0 0 0.587891,0.92187 c 1.629977,0.75791 3.464625,1.1495 5.412109,1.33008 l 0,3.15234 a 1.0162329,1.0162329 0 0 0 1.015638,1.01554 l 4,0 a 1.0162329,1.0162329 0 0 0 1.015625,-1.01562 l 0,-3.53516 c 1.196767,-0.33153 2.295808,-0.78707 3.197266,-1.47461 1.826402,-1.38481 2.802734,-3.42812 2.802734,-5.79296 0,-1.71131 -0.500279,-3.25937 -1.503906,-4.49024 -1.028576,-1.27228 -2.719472,-2.35372 -5.085938,-3.42969 -1.714607,-0.77855 -2.827327,-1.33803 -3.167969,-1.55273 -0.375463,-0.25415 -0.606017,-0.4869 -0.714843,-0.64844 -0.0994,-0.15593 -0.154297,-0.32405 -0.154297,-0.59375 0,-0.44901 0.101123,-0.65966 0.421875,-0.92578 0.287571,-0.23859 0.783392,-0.42187 1.617187,-0.42187 0.744491,0 1.505972,0.0921 2.285157,0.27734 a 1.0162329,1.0162329 0 0 0 0.002,0 c 0.78887,0.18514 1.838046,0.52747 3.11914,1.02734 a 1.0162329,1.0162329 0 0 0 1.300782,-0.54101 l 1.679687,-3.84766 a 1.0162329,1.0162329 0 0 0 -0.544922,-1.3457 c -1.305448,-0.5384 -2.566437,-0.95874 -3.785156,-1.25977 l -0.002,0 c -0.477361,-0.11894 -0.975293,-0.16946 -1.466797,-0.24023 l 0,-3.20508 a 1.0162329,1.0162329 0 0 0 -1.015625,-1.01563 l -4,0 z m 18,35 a 1.0162329,1.0162329 0 0 0 -1.015625,1.01563 l 0,4 a 1.0162329,1.0162329 0 0 0 1.015625,1.01562 l 21,0 a 1.0162329,1.0162329 0 0 0 1.015625,-1.01562 l 0,-4 a 1.0162329,1.0162329 0 0 0 -1.015625,-1.01563 l -21,0 z"
         inkscape:connector-curvature="0" />
      <path
         id="rect4237-3"
         d="m 35.000003,952.86057 0,4.23437 c -1.39916,0.2728 -2.57253,0.78284 -3.515625,1.53711 -1.466247,1.18164 -2.199219,2.80589 -2.199219,4.8711 0,1.09647 0.224166,2.0553 0.671875,2.875 0.447709,0.81969 1.046963,1.53686 1.796875,2.15429 0.749913,0.61744 1.875175,1.26294 3.375,1.9336 1.60056,0.72388 2.65701,1.25007 3.171875,1.58008 0.526058,0.33 0.924734,0.67516 1.19336,1.03711 0.268625,0.35129 0.402343,0.75709 0.402343,1.21484 0,0.81969 -0.308228,1.43639 -0.923828,1.85156 -0.604407,0.41517 -1.477482,0.62305 -2.61914,0.62305 -0.951382,0 -2.0034,-0.14422 -3.15625,-0.43164 -1.141658,-0.28743 -2.540743,-0.78178 -4.197266,-1.48438 l 0,4.59961 c 1.763638,0.82006 3.773202,1.25914 6,1.36133 l 0,4.04297 4,0 0,-4.2832 c 1.430421,-0.28918 2.632927,-0.799 3.599609,-1.53711 1.60056,-1.21358 2.400391,-2.87464 2.400391,-4.98242 0,-1.52229 -0.424744,-2.80441 -1.275391,-3.84766 -0.850647,-1.05389 -2.424241,-2.10324 -4.71875,-3.14649 -1.734872,-0.78775 -2.836546,-1.33083 -3.30664,-1.6289 -0.458902,-0.30872 -0.795151,-0.62205 -1.007813,-0.94141 -0.212662,-0.33 -0.318359,-0.71393 -0.318359,-1.15039 0,-0.70259 0.263004,-1.27057 0.789062,-1.70703 0.526058,-0.43646 1.280666,-0.65625 2.265625,-0.65625 0.828262,0 1.668885,0.10243 2.519532,0.30469 0.861839,0.20226 1.94631,0.55738 3.255859,1.06836 l 1.679687,-3.84766 c -1.264777,-0.52162 -2.480487,-0.92546 -3.644531,-1.21289 -0.721164,-0.1798 -1.468939,-0.29791 -2.238281,-0.36523 l 0,-4.06641 z m 18,35 0,4 21,0 0,-4 z"
         style="color:#000000;clip-rule:nonzero;display:inline;overflow:visible;visibility:visible;opacity:0.3;isolation:auto;mix-blend-mode:normal;color-interpolation:sRGB;color-interpolation-filters:linearRGB;solid-color:#000000;solid-opacity:1;fill:#000000;fill-opacity:1;fill-rule:nonzero;stroke:none;stroke-width:1;stroke-linecap:butt;stroke-linejoin:miter;stroke-miterlimit:4;stroke-dasharray:none;stroke-dashoffset:0;stroke-opacity:1;marker:none;color-rendering:auto;image-rendering:auto;shape-rendering:auto;text-rendering:auto;enable-background:accumulate"
         inkscape:connector-curvature="0" />
      <g
         id="g4388">
        <path
           inkscape:connector-curvature="0"
           style="color:#000000;clip-rule:nonzero;display:inline;overflow:visible;visibility:visible;opacity:1;isolation:auto;mix-blend-mode:normal;color-interpolation:sRGB;color-interpolation-filters:linearRGB;solid-color:#000000;solid-opacity:1;fill:#ffffff;fill-opacity:1;fill-rule:nonzero;stroke:none;stroke-width:5;stroke-linecap:butt;stroke-linejoin:miter;stroke-miterlimit:4;stroke-dasharray:none;stroke-dashoffset:0;stroke-opacity:1;marker:none;color-rendering:auto;image-rendering:auto;shape-rendering:auto;text-rendering:auto;enable-background:accumulate"
           d="m 35.000003,951.86057 0,4.23438 c -1.39916,0.27279 -2.57253,0.78283 -3.515625,1.53711 -1.466247,1.18163 -2.199219,2.80589 -2.199219,4.87109 0,1.09647 0.224166,2.05531 0.671875,2.875 0.447709,0.81969 1.046963,1.53686 1.796875,2.1543 0.749913,0.61743 1.875175,1.26293 3.375,1.93359 1.60056,0.72389 2.65701,1.25007 3.171875,1.58008 0.526058,0.33001 0.924734,0.67516 1.19336,1.03711 0.268625,0.3513 0.402343,0.75709 0.402343,1.21484 0,0.8197 -0.308228,1.43639 -0.923828,1.85156 -0.604407,0.41517 -1.477482,0.62305 -2.61914,0.62305 -0.951382,0 -2.0034,-0.14421 -3.15625,-0.43164 -1.141658,-0.28742 -2.540743,-0.78178 -4.197266,-1.48437 l 0,4.5996 c 1.763638,0.82006 3.773202,1.25914 6,1.36133 l 0,4.04297 4,0 0,-4.2832 c 1.430421,-0.28918 2.632927,-0.79899 3.599609,-1.53711 1.60056,-1.21357 2.400391,-2.87464 2.400391,-4.98242 0,-1.52229 -0.424744,-2.80441 -1.275391,-3.84766 -0.850647,-1.05389 -2.424241,-2.10324 -4.71875,-3.14648 -1.734872,-0.78776 -2.836546,-1.33084 -3.30664,-1.62891 -0.458902,-0.30872 -0.795151,-0.62204 -1.007813,-0.94141 -0.212662,-0.33 -0.318359,-0.71393 -0.318359,-1.15039 0,-0.70259 0.263004,-1.27057 0.789062,-1.70703 0.526058,-0.43646 1.280666,-0.65625 2.265625,-0.65625 0.828262,0 1.668885,0.10243 2.519532,0.30469 0.861839,0.20226 1.94631,0.55738 3.255859,1.06836 l 1.679687,-3.84766 c -1.264777,-0.52162 -2.480487,-0.92546 -3.644531,-1.21289 -0.721164,-0.1798 -1.468939,-0.29791 -2.238281,-0.36523 l 0,-4.06641 z m 18,35 0,4 21,0 0,-4 z"
           id="rect4237" />
      </g>
      <path
         sodipodi:nodetypes="cccccccc"
         inkscape:connector-curvature="0"
         id="path4393-56"
         d="m 84.179353,964.96645 -10.385882,7.59124 2.421875,3.31446 9.621094,-7.20899 9.660156,7.23633 2.419921,-3.31445 -10.302972,-7.61932 z"
         style="opacity:0.15;fill:#000000;fill-opacity:1;fill-rule:evenodd;stroke:#000000;stroke-width:2;stroke-linecap:butt;stroke-linejoin:round;stroke-miterlimit:4;stroke-dasharray:none;stroke-opacity:1" />
      <path
         sodipodi:nodetypes="cccccccc"
         inkscape:connector-curvature="0"
         id="path4393-5"
         d="m 84.178455,965.27437 -10.385882,7.59124 2.421875,3.31446 9.621094,-7.20899 9.660156,7.23633 2.419921,-3.31445 -10.302972,-7.61932 z"
         style="opacity:0.3;fill:#00000f;fill-opacity:0.94117647;fill-rule:evenodd;stroke:none;stroke-width:1px;stroke-linecap:butt;stroke-linejoin:miter;stroke-opacity:1" />
      <path
         sodipodi:nodetypes="cccccccc"
         inkscape:connector-curvature="0"
         id="path4393"
         d="m 84.178455,963.96645 -10.385882,7.59124 2.421875,3.31446 9.621094,-7.20899 9.660156,7.23633 2.419921,-3.31445 -10.302972,-7.61932 z"
         style="fill:#ffffff;fill-rule:evenodd;stroke:none;stroke-width:1px;stroke-linecap:butt;stroke-linejoin:miter;stroke-opacity:1" />
    </g>
  </g>
</svg>
