<?xml version="1.0" encoding="UTF-8" standalone="no"?>
<!-- Created with Inkscape (http://www.inkscape.org/) -->

<svg
   xmlns:dc="http://purl.org/dc/elements/1.1/"
   xmlns:cc="http://creativecommons.org/ns#"
   xmlns:rdf="http://www.w3.org/1999/02/22-rdf-syntax-ns#"
   xmlns:svg="http://www.w3.org/2000/svg"
   xmlns="http://www.w3.org/2000/svg"
   xmlns:xlink="http://www.w3.org/1999/xlink"
   xmlns:sodipodi="http://sodipodi.sourceforge.net/DTD/sodipodi-0.dtd"
   xmlns:inkscape="http://www.inkscape.org/namespaces/inkscape"
   width="128"
   height="128"
   viewBox="0 0 128 128"
   id="svg3419"
   version="1.1"
   inkscape:version="0.91 r13725"
   sodipodi:docname="com.github.muriloventuroso.easyssh.svg">
  <defs
     id="defs3421">
    <linearGradient
       gradientTransform="matrix(2.7297298,0,0,2.7297298,-1.51352,920.34889)"
       gradientUnits="userSpaceOnUse"
       xlink:href="#linearGradient3924"
       id="linearGradient4136"
       y2="43"
       x2="23.99999"
       y1="4.999989"
       x1="23.99999" />
    <linearGradient
       id="linearGradient3924">
      <stop
         offset="0"
         style="stop-color:#ffffff;stop-opacity:1"
         id="stop3926" />
      <stop
         offset="0.06316455"
         style="stop-color:#ffffff;stop-opacity:0.23529412"
         id="stop3928" />
      <stop
         offset="0.95056331"
         style="stop-color:#ffffff;stop-opacity:0.15686275"
         id="stop3930" />
      <stop
         offset="1"
         style="stop-color:#ffffff;stop-opacity:0.39215687"
         id="stop3932" />
    </linearGradient>
    <radialGradient
       gradientTransform="matrix(0,24.139622,-29.635745,0,361.28116,-210.22844)"
       gradientUnits="userSpaceOnUse"
       xlink:href="#linearGradient2867-449-88-871-390-598-476-591-434-148-57-177-8-3-3-6-4-8-8-8-5-7-8"
       id="radialGradient3936-3"
       fy="9.9571075"
       fx="7.1183534"
       r="8.9330635"
       cy="9.9571075"
       cx="7.1183534" />
    <linearGradient
       id="linearGradient2867-449-88-871-390-598-476-591-434-148-57-177-8-3-3-6-4-8-8-8-5-7-8">
      <stop
         offset="0"
         style="stop-color:#404648;stop-opacity:1"
         id="stop3750-1-0-7-6-6-1-3-9-3-9-2" />
      <stop
         offset="1"
         style="stop-color:#0c1011;stop-opacity:1"
         id="stop3754-1-8-5-2-7-6-7-1-9-1-0" />
    </linearGradient>
    <radialGradient
       gradientTransform="matrix(2.003784,0,0,1.4,27.98813,-17.4)"
       gradientUnits="userSpaceOnUse"
       xlink:href="#linearGradient3688-166-749-5"
       id="radialGradient4093"
       fy="43.5"
       fx="4.9929786"
       r="2.5"
       cy="43.5"
       cx="4.9929786" />
    <linearGradient
       id="linearGradient3688-166-749-5">
      <stop
         offset="0"
         style="stop-color:#181818;stop-opacity:1"
         id="stop2883-0" />
      <stop
         offset="1"
         style="stop-color:#181818;stop-opacity:0"
         id="stop2885-5" />
    </linearGradient>
    <radialGradient
       gradientTransform="matrix(2.003784,0,0,1.4,-20.01187,-104.4)"
       gradientUnits="userSpaceOnUse"
       xlink:href="#linearGradient3688-166-749-5"
       id="radialGradient4095"
       fy="43.5"
       fx="4.9929786"
       r="2.5"
       cy="43.5"
       cx="4.9929786" />
    <linearGradient
       gradientUnits="userSpaceOnUse"
       xlink:href="#linearGradient3702-501-757-0"
       id="linearGradient4097"
       y2="39.999443"
       x2="25.058096"
       y1="47.027729"
       x1="25.058096" />
    <linearGradient
       id="linearGradient3702-501-757-0">
      <stop
         offset="0"
         style="stop-color:#181818;stop-opacity:0"
         id="stop2895-0" />
      <stop
         offset="0.5"
         style="stop-color:#181818;stop-opacity:1"
         id="stop2897-2" />
      <stop
         offset="1"
         style="stop-color:#181818;stop-opacity:0"
         id="stop2899-6" />
    </linearGradient>
    <radialGradient
       gradientTransform="matrix(1.5563924,0,0,0.16978827,70.270358,1020.9927)"
       gradientUnits="userSpaceOnUse"
       xlink:href="#linearGradient3811"
       id="radialGradient4111"
       fy="93.467628"
       fx="-4.0287771"
       r="35.338131"
       cy="93.467628"
       cx="-4.0287771" />
    <linearGradient
       id="linearGradient3811">
      <stop
         offset="0"
         style="stop-color:#000000;stop-opacity:1"
         id="stop3813" />
      <stop
         offset="1"
         style="stop-color:#000000;stop-opacity:0"
         id="stop3815" />
    </linearGradient>
  </defs>
  <sodipodi:namedview
     id="base"
     pagecolor="#ffffff"
     bordercolor="#666666"
     borderopacity="1.0"
     inkscape:pageopacity="0.0"
     inkscape:pageshadow="2"
     inkscape:zoom="3.8716159"
     inkscape:cx="64.954099"
     inkscape:cy="37.285306"
     inkscape:document-units="px"
     inkscape:current-layer="layer1"
     showgrid="false"
     units="px"
     showguides="false"
     inkscape:guide-bbox="true"
     inkscape:window-width="1920"
     inkscape:window-height="1017"
     inkscape:window-x="0"
     inkscape:window-y="30"
     inkscape:window-maximized="1">
    <sodipodi:guide
       position="-5.3033009,45.583134"
       orientation="0,1"
       id="guide4410" />
    <sodipodi:guide
       position="-14.20527,56.473841"
       orientation="0,1"
       id="guide4415" />
    <sodipodi:guide
       position="-21.361607,55.691965"
       orientation="-0.5900496,0.807367"
       id="guide4417" />
    <sodipodi:guide
       position="-3.7565048,46.751123"
       orientation="-0.59590937,-0.80305169"
       id="guide4419" />
  </sodipodi:namedview>
  <metadata
     id="metadata3424">
    <rdf:RDF>
      <cc:Work
         rdf:about="">
        <dc:format>image/svg+xml</dc:format>
        <dc:type
           rdf:resource="http://purl.org/dc/dcmitype/StillImage" />
        <dc:title />
      </cc:Work>
    </rdf:RDF>
  </metadata>
  <g
     inkscape:label="Camada 1"
     inkscape:groupmode="layer"
     id="layer1"
     transform="translate(0,-924.3622)">
    <path
       style="color:#000000;display:inline;overflow:visible;visibility:visible;opacity:0.9;fill:url(#radialGradient3936-3);fill-opacity:1;fill-rule:nonzero;stroke:none;stroke-width:0.99999994;marker:none;enable-background:accumulate"
       d="M 64 10 C 35.469 10 12.5 32.969 12.5 61.5 C 12.5 69.773694 14.442244 77.572589 17.880859 84.486328 C 18.906075 85.304783 20.343249 86.13077 22.207031 86.849609 C 26.952313 88.679909 34.234656 89.788828 43.007812 89.798828 C 60.484897 89.814728 82.103625 85.021272 98.816406 77.388672 C 104.51446 74.786381 110.83917 71.033086 115.08594 67.957031 C 115.34853 65.841198 115.5 63.689189 115.5 61.5 C 115.5 32.969 92.531 10 64 10 z M 112.85547 77.84375 C 109.33062 79.980488 105.46737 82.046569 101.72461 83.755859 C 83.964563 91.866659 61.739749 96.815828 43.001953 96.798828 C 36.101109 96.792322 29.967162 96.194689 24.794922 94.945312 C 34.226572 106.00164 48.261848 113 64 113 C 86.810503 113 106.05106 98.311603 112.85547 77.84375 z "
       transform="translate(0,924.3622)"
       id="rect5505-21-3" />
    <rect
       width="101"
       height="101"
       rx="50.5"
       ry="47.232143"
       x="13.499988"
       y="935.36237"
       id="rect6741-7"
       style="opacity:0.3;fill:none;stroke:url(#linearGradient4136);stroke-width:0.99999994;stroke-linecap:round;stroke-linejoin:round;stroke-miterlimit:4;stroke-dasharray:none;stroke-dashoffset:0;stroke-opacity:1" />
    <path
       style="color:#000000;display:inline;overflow:visible;visibility:visible;opacity:0.7;fill:none;stroke:#000000;stroke-width:1;stroke-linecap:round;stroke-linejoin:round;stroke-miterlimit:4;stroke-dasharray:none;stroke-dashoffset:0;stroke-opacity:1;marker:none;enable-background:accumulate"
       d="M 64 10 C 35.469 10 12.5 32.969 12.5 61.5 C 12.5 69.773694 14.442244 77.572589 17.880859 84.486328 C 18.051764 84.622766 18.251444 84.758206 18.445312 84.894531 C 18.595023 84.999354 18.742602 85.104793 18.90625 85.208984 C 19.074877 85.316966 19.256102 85.422512 19.439453 85.529297 C 19.698579 85.67922 19.971481 85.828327 20.259766 85.974609 C 20.401959 86.047176 20.540042 86.120008 20.689453 86.191406 C 21.16324 86.416668 21.662808 86.639709 22.207031 86.849609 C 23.986512 87.535972 26.122691 88.120405 28.560547 88.583984 C 30.185784 88.893037 31.945286 89.148466 33.822266 89.34375 C 35.699245 89.539034 37.693036 89.674429 39.789062 89.744141 C 40.837076 89.778997 41.911168 89.797578 43.007812 89.798828 C 47.377084 89.802803 52.004392 89.505867 56.75 88.939453 C 57.936402 88.79785 59.131199 88.639691 60.330078 88.464844 C 62.727835 88.115148 65.145249 87.699556 67.566406 87.222656 C 72.408721 86.268857 77.262467 85.068781 81.986328 83.652344 C 84.348259 82.944125 86.677727 82.181474 88.957031 81.369141 C 92.375987 80.15064 95.68276 78.819784 98.816406 77.388672 C 99.635234 77.014717 100.46876 76.611771 101.30664 76.195312 C 101.48911 76.104568 101.67262 76.008448 101.85547 75.916016 C 102.48243 75.599288 103.11072 75.275139 103.73828 74.941406 C 104.0394 74.781097 104.33866 74.618512 104.63867 74.455078 C 105.11457 74.196148 105.58774 73.933144 106.05859 73.667969 C 106.446 73.449454 106.83475 73.23126 107.2168 73.009766 C 107.54884 72.817565 107.87235 72.623347 108.19922 72.429688 C 108.66097 72.155646 109.12549 71.882612 109.57422 71.607422 C 111.59516 70.368041 113.46686 69.127641 115.05273 67.980469 C 115.06361 67.972602 115.07509 67.964889 115.08594 67.957031 C 115.34853 65.841198 115.5 63.689189 115.5 61.5 C 115.5 32.969 92.531 10 64 10 z M 112.85547 77.84375 C 111.98239 78.373006 111.08927 78.897874 110.18164 79.414062 C 109.47047 79.81856 108.74428 80.211773 108.01953 80.603516 C 107.80795 80.717867 107.60104 80.838139 107.38867 80.951172 C 107.38275 80.954327 107.37702 80.957784 107.37109 80.960938 C 106.43701 81.457882 105.49715 81.94026 104.55664 82.40625 C 104.55326 82.407923 104.55025 82.410436 104.54688 82.412109 C 103.60381 82.879236 102.65979 83.328771 101.72461 83.755859 C 100.61461 84.262784 99.486692 84.756497 98.34375 85.238281 C 96.057865 86.20185 93.710754 87.114938 91.316406 87.972656 C 87.724885 89.259234 84.02945 90.422582 80.28125 91.451172 C 74.034249 93.165489 67.641606 94.50449 61.347656 95.414062 C 60.088866 95.595978 58.833004 95.761121 57.583984 95.908203 C 53.836925 96.349447 50.143927 96.632255 46.554688 96.744141 C 45.358274 96.781436 44.173065 96.799891 43.001953 96.798828 C 41.93745 96.797825 40.898385 96.777405 39.871094 96.748047 C 39.602424 96.740434 39.338342 96.730262 39.072266 96.720703 C 38.332901 96.693932 37.603626 96.6592 36.884766 96.617188 C 36.574386 96.599172 36.261574 96.583369 35.955078 96.5625 C 35.037381 96.499609 34.131977 96.426706 33.25 96.337891 C 33.244034 96.33729 33.238386 96.336539 33.232422 96.335938 C 33.01093 96.313696 32.79927 96.283657 32.580078 96.259766 C 31.900068 96.185292 31.229755 96.106101 30.572266 96.015625 C 30.214272 95.966546 29.862899 95.913249 29.511719 95.859375 C 29.009476 95.782092 28.515444 95.698465 28.027344 95.611328 C 27.654943 95.544983 27.280019 95.480357 26.916016 95.408203 C 26.193118 95.264723 25.484129 95.111793 24.794922 94.945312 C 34.226572 106.00164 48.261848 113 64 113 C 86.810503 113 106.05106 98.311603 112.85547 77.84375 z "
       transform="translate(0,924.3622)"
       id="rect5505-21-3-1" />
    <path
       inkscape:connector-curvature="0"
       d="m 35.000003,951.84494 a 1.0162329,1.0162329 0 0 0 -1.015625,1.01563 l 0,3.48828 c -1.174604,0.32637 -2.253924,0.78575 -3.134766,1.49024 a 1.0162329,1.0162329 0 0 0 -0.002,0.002 c -1.691656,1.36329 -2.578125,3.35647 -2.578125,5.6621 0,1.23497 0.255817,2.3743 0.794922,3.36133 0.511035,0.93564 1.200047,1.75912 2.042969,2.45313 0.865783,0.71283 2.057154,1.38246 3.603516,2.07422 1.585069,0.71688 2.644672,1.25572 3.041015,1.50976 a 1.0162329,1.0162329 0 0 0 0.0098,0.006 c 0.451644,0.28333 0.749888,0.55741 0.916015,0.78125 a 1.0162329,1.0162329 0 0 0 0.0098,0.0117 c 0.138108,0.18061 0.193359,0.3378 0.193359,0.59766 0,0.56496 -0.11734,0.7675 -0.476562,1.00976 a 1.0162329,1.0162329 0 0 0 -0.0078,0.004 c -0.358454,0.24623 -1.024657,0.44532 -2.042968,0.44532 -0.848137,0 -1.819604,-0.13109 -2.908204,-0.40235 l -0.002,0 c -1.06455,-0.26813 -2.422653,-0.7447 -4.046875,-1.43359 a 1.0162329,1.0162329 0 0 0 -1.412109,0.93555 l 0,4.59961 a 1.0162329,1.0162329 0 0 0 0.587891,0.92187 c 1.629977,0.75791 3.464625,1.1495 5.412109,1.33008 l 0,3.15234 a 1.0162329,1.0162329 0 0 0 1.015638,1.01554 l 4,0 a 1.0162329,1.0162329 0 0 0 1.015625,-1.01562 l 0,-3.53516 c 1.196767,-0.33153 2.295808,-0.78707 3.197266,-1.47461 1.826402,-1.38481 2.802734,-3.42812 2.802734,-5.79296 0,-1.71131 -0.500279,-3.25937 -1.503906,-4.49024 -1.028576,-1.27228 -2.719472,-2.35372 -5.085938,-3.42969 -1.714607,-0.77855 -2.827327,-1.33803 -3.167969,-1.55273 -0.375463,-0.25415 -0.606017,-0.4869 -0.714843,-0.64844 -0.0994,-0.15593 -0.154297,-0.32405 -0.154297,-0.59375 0,-0.44901 0.101123,-0.65966 0.421875,-0.92578 0.287571,-0.23859 0.783392,-0.42187 1.617187,-0.42187 0.744491,0 1.505972,0.0921 2.285157,0.27734 a 1.0162329,1.0162329 0 0 0 0.002,0 c 0.78887,0.18514 1.838046,0.52747 3.11914,1.02734 a 1.0162329,1.0162329 0 0 0 1.300782,-0.54101 l 1.679687,-3.84766 a 1.0162329,1.0162329 0 0 0 -0.544922,-1.3457 c -1.305448,-0.5384 -2.566437,-0.95874 -3.785156,-1.25977 l -0.002,0 c -0.477361,-0.11894 -0.975293,-0.16946 -1.466797,-0.24023 l 0,-3.20508 a 1.0162329,1.0162329 0 0 0 -1.015625,-1.01563 l -4,0 z m 18,35 a 1.0162329,1.0162329 0 0 0 -1.015625,1.01563 l 0,4 a 1.0162329,1.0162329 0 0 0 1.015625,1.01562 l 21,0 a 1.0162329,1.0162329 0 0 0 1.015625,-1.01562 l 0,-4 a 1.0162329,1.0162329 0 0 0 -1.015625,-1.01563 l -21,0 z"
       id="path3485"
       style="color:#000000;clip-rule:nonzero;display:inline;overflow:visible;visibility:visible;opacity:0.15;isolation:auto;mix-blend-mode:normal;color-interpolation:sRGB;color-interpolation-filters:linearRGB;solid-color:#000000;solid-opacity:1;fill:#000000;fill-opacity:1;fill-rule:nonzero;stroke:none;stroke-width:1;stroke-linecap:butt;stroke-linejoin:miter;stroke-miterlimit:4;stroke-dasharray:none;stroke-dashoffset:0;stroke-opacity:1;marker:none;color-rendering:auto;image-rendering:auto;shape-rendering:auto;text-rendering:auto;enable-background:accumulate" />
    <path
       inkscape:connector-curvature="0"
       style="color:#000000;clip-rule:nonzero;display:inline;overflow:visible;visibility:visible;opacity:0.3;isolation:auto;mix-blend-mode:normal;color-interpolation:sRGB;color-interpolation-filters:linearRGB;solid-color:#000000;solid-opacity:1;fill:#000000;fill-opacity:1;fill-rule:nonzero;stroke:none;stroke-width:1;stroke-linecap:butt;stroke-linejoin:miter;stroke-miterlimit:4;stroke-dasharray:none;stroke-dashoffset:0;stroke-opacity:1;marker:none;color-rendering:auto;image-rendering:auto;shape-rendering:auto;text-rendering:auto;enable-background:accumulate"
       d="m 35.000003,952.86057 0,4.23437 c -1.39916,0.2728 -2.57253,0.78284 -3.515625,1.53711 -1.466247,1.18164 -2.199219,2.80589 -2.199219,4.8711 0,1.09647 0.224166,2.0553 0.671875,2.875 0.447709,0.81969 1.046963,1.53686 1.796875,2.15429 0.749913,0.61744 1.875175,1.26294 3.375,1.9336 1.60056,0.72388 2.65701,1.25007 3.171875,1.58008 0.526058,0.33 0.924734,0.67516 1.19336,1.03711 0.268625,0.35129 0.402343,0.75709 0.402343,1.21484 0,0.81969 -0.308228,1.43639 -0.923828,1.85156 -0.604407,0.41517 -1.477482,0.62305 -2.61914,0.62305 -0.951382,0 -2.0034,-0.14422 -3.15625,-0.43164 -1.141658,-0.28743 -2.540743,-0.78178 -4.197266,-1.48438 l 0,4.59961 c 1.763638,0.82006 3.773202,1.25914 6,1.36133 l 0,4.04297 4,0 0,-4.2832 c 1.430421,-0.28918 2.632927,-0.799 3.599609,-1.53711 1.60056,-1.21358 2.400391,-2.87464 2.400391,-4.98242 0,-1.52229 -0.424744,-2.80441 -1.275391,-3.84766 -0.850647,-1.05389 -2.424241,-2.10324 -4.71875,-3.14649 -1.734872,-0.78775 -2.836546,-1.33083 -3.30664,-1.6289 -0.458902,-0.30872 -0.795151,-0.62205 -1.007813,-0.94141 -0.212662,-0.33 -0.318359,-0.71393 -0.318359,-1.15039 0,-0.70259 0.263004,-1.27057 0.789062,-1.70703 0.526058,-0.43646 1.280666,-0.65625 2.265625,-0.65625 0.828262,0 1.668885,0.10243 2.519532,0.30469 0.861839,0.20226 1.94631,0.55738 3.255859,1.06836 l 1.679687,-3.84766 c -1.264777,-0.52162 -2.480487,-0.92546 -3.644531,-1.21289 -0.721164,-0.1798 -1.468939,-0.29791 -2.238281,-0.36523 l 0,-4.06641 z m 18,35 0,4 21,0 0,-4 z"
       id="rect4237-3" />
    <g
       id="g4388">
      <path
         id="rect4237"
         d="m 35.000003,951.86057 0,4.23438 c -1.39916,0.27279 -2.57253,0.78283 -3.515625,1.53711 -1.466247,1.18163 -2.199219,2.80589 -2.199219,4.87109 0,1.09647 0.224166,2.05531 0.671875,2.875 0.447709,0.81969 1.046963,1.53686 1.796875,2.1543 0.749913,0.61743 1.875175,1.26293 3.375,1.93359 1.60056,0.72389 2.65701,1.25007 3.171875,1.58008 0.526058,0.33001 0.924734,0.67516 1.19336,1.03711 0.268625,0.3513 0.402343,0.75709 0.402343,1.21484 0,0.8197 -0.308228,1.43639 -0.923828,1.85156 -0.604407,0.41517 -1.477482,0.62305 -2.61914,0.62305 -0.951382,0 -2.0034,-0.14421 -3.15625,-0.43164 -1.141658,-0.28742 -2.540743,-0.78178 -4.197266,-1.48437 l 0,4.5996 c 1.763638,0.82006 3.773202,1.25914 6,1.36133 l 0,4.04297 4,0 0,-4.2832 c 1.430421,-0.28918 2.632927,-0.79899 3.599609,-1.53711 1.60056,-1.21357 2.400391,-2.87464 2.400391,-4.98242 0,-1.52229 -0.424744,-2.80441 -1.275391,-3.84766 -0.850647,-1.05389 -2.424241,-2.10324 -4.71875,-3.14648 -1.734872,-0.78776 -2.836546,-1.33084 -3.30664,-1.62891 -0.458902,-0.30872 -0.795151,-0.62204 -1.007813,-0.94141 -0.212662,-0.33 -0.318359,-0.71393 -0.318359,-1.15039 0,-0.70259 0.263004,-1.27057 0.789062,-1.70703 0.526058,-0.43646 1.280666,-0.65625 2.265625,-0.65625 0.828262,0 1.668885,0.10243 2.519532,0.30469 0.861839,0.20226 1.94631,0.55738 3.255859,1.06836 l 1.679687,-3.84766 c -1.264777,-0.52162 -2.480487,-0.92546 -3.644531,-1.21289 -0.721164,-0.1798 -1.468939,-0.29791 -2.238281,-0.36523 l 0,-4.06641 z m 18,35 0,4 21,0 0,-4 z"
         style="color:#000000;clip-rule:nonzero;display:inline;overflow:visible;visibility:visible;opacity:1;isolation:auto;mix-blend-mode:normal;color-interpolation:sRGB;color-interpolation-filters:linearRGB;solid-color:#000000;solid-opacity:1;fill:#ffffff;fill-opacity:1;fill-rule:nonzero;stroke:none;stroke-width:5;stroke-linecap:butt;stroke-linejoin:miter;stroke-miterlimit:4;stroke-dasharray:none;stroke-dashoffset:0;stroke-opacity:1;marker:none;color-rendering:auto;image-rendering:auto;shape-rendering:auto;text-rendering:auto;enable-background:accumulate"
         inkscape:connector-curvature="0" />
    </g>
    <path
       style="opacity:0.15;fill:#000000;fill-opacity:1;fill-rule:evenodd;stroke:#000000;stroke-width:2;stroke-linecap:butt;stroke-linejoin:round;stroke-miterlimit:4;stroke-dasharray:none;stroke-opacity:1"
       d="m 84.179353,964.96645 -10.385882,7.59124 2.421875,3.31446 9.621094,-7.20899 9.660156,7.23633 2.419921,-3.31445 -10.302972,-7.61932 z"
       id="path4393-56"
       inkscape:connector-curvature="0"
       sodipodi:nodetypes="cccccccc" />
    <path
       style="opacity:0.3;fill:#00000f;fill-opacity:0.94117647;fill-rule:evenodd;stroke:none;stroke-width:1px;stroke-linecap:butt;stroke-linejoin:miter;stroke-opacity:1"
       d="m 84.178455,965.27437 -10.385882,7.59124 2.421875,3.31446 9.621094,-7.20899 9.660156,7.23633 2.419921,-3.31445 -10.302972,-7.61932 z"
       id="path4393-5"
       inkscape:connector-curvature="0"
       sodipodi:nodetypes="cccccccc" />
    <path
       style="fill:#ffffff;fill-rule:evenodd;stroke:none;stroke-width:1px;stroke-linecap:butt;stroke-linejoin:miter;stroke-opacity:1"
       d="m 84.178455,963.96645 -10.385882,7.59124 2.421875,3.31446 9.621094,-7.20899 9.660156,7.23633 2.419921,-3.31445 -10.302972,-7.61932 z"
       id="path4393"
       inkscape:connector-curvature="0"
       sodipodi:nodetypes="cccccccc" />
  </g>
</svg>
