<?xml version="1.0" encoding="UTF-8" standalone="no"?>
<!-- Created with Inkscape (http://www.inkscape.org/) -->

<svg
   xmlns:dc="http://purl.org/dc/elements/1.1/"
   xmlns:cc="http://creativecommons.org/ns#"
   xmlns:rdf="http://www.w3.org/1999/02/22-rdf-syntax-ns#"
   xmlns:svg="http://www.w3.org/2000/svg"
   xmlns="http://www.w3.org/2000/svg"
   xmlns:xlink="http://www.w3.org/1999/xlink"
   xmlns:sodipodi="http://sodipodi.sourceforge.net/DTD/sodipodi-0.dtd"
   xmlns:inkscape="http://www.inkscape.org/namespaces/inkscape"
   width="16"
   height="16"
   viewBox="0 0 16 16"
   id="svg3419"
   version="1.1"
   inkscape:version="0.91 r13725"
   sodipodi:docname="com.github.muriloventuroso.easyssh.svg">
  <defs
     id="defs3421">
    <linearGradient
       gradientTransform="matrix(0.34742014,0,0,0.34742014,-0.33808389,1035.706)"
       gradientUnits="userSpaceOnUse"
       xlink:href="#linearGradient3924"
       id="linearGradient4136"
       y2="43"
       x2="23.99999"
       y1="4.999989"
       x1="23.99999" />
    <linearGradient
       id="linearGradient3924">
      <stop
         offset="0"
         style="stop-color:#ffffff;stop-opacity:1"
         id="stop3926" />
      <stop
         offset="0.06316455"
         style="stop-color:#ffffff;stop-opacity:0.23529412"
         id="stop3928" />
      <stop
         offset="0.95056331"
         style="stop-color:#ffffff;stop-opacity:0.15686275"
         id="stop3930" />
      <stop
         offset="1"
         style="stop-color:#ffffff;stop-opacity:0.39215687"
         id="stop3932" />
    </linearGradient>
    <radialGradient
       gradientTransform="matrix(0,3.0723154,-3.7718219,0,45.835782,1009.4605)"
       gradientUnits="userSpaceOnUse"
       xlink:href="#linearGradient2867-449-88-871-390-598-476-591-434-148-57-177-8-3-3-6-4-8-8-8-5-7-8"
       id="radialGradient3936-3"
       fy="9.9571075"
       fx="7.1183534"
       r="8.9330635"
       cy="9.9571075"
       cx="7.1183534" />
    <linearGradient
       id="linearGradient2867-449-88-871-390-598-476-591-434-148-57-177-8-3-3-6-4-8-8-8-5-7-8">
      <stop
         offset="0"
         style="stop-color:#404648;stop-opacity:1"
         id="stop3750-1-0-7-6-6-1-3-9-3-9-2" />
      <stop
         offset="1"
         style="stop-color:#0c1011;stop-opacity:1"
         id="stop3754-1-8-5-2-7-6-7-1-9-1-0" />
    </linearGradient>
    <radialGradient
       gradientTransform="matrix(2.003784,0,0,1.4,27.98813,-17.4)"
       gradientUnits="userSpaceOnUse"
       xlink:href="#linearGradient3688-166-749-5"
       id="radialGradient4093"
       fy="43.5"
       fx="4.9929786"
       r="2.5"
       cy="43.5"
       cx="4.9929786" />
    <linearGradient
       id="linearGradient3688-166-749-5">
      <stop
         offset="0"
         style="stop-color:#181818;stop-opacity:1"
         id="stop2883-0" />
      <stop
         offset="1"
         style="stop-color:#181818;stop-opacity:0"
         id="stop2885-5" />
    </linearGradient>
    <radialGradient
       gradientTransform="matrix(2.003784,0,0,1.4,-20.01187,-104.4)"
       gradientUnits="userSpaceOnUse"
       xlink:href="#linearGradient3688-166-749-5"
       id="radialGradient4095"
       fy="43.5"
       fx="4.9929786"
       r="2.5"
       cy="43.5"
       cx="4.9929786" />
    <linearGradient
       gradientUnits="userSpaceOnUse"
       xlink:href="#linearGradient3702-501-757-0"
       id="linearGradient4097"
       y2="39.999443"
       x2="25.058096"
       y1="47.027729"
       x1="25.058096" />
    <linearGradient
       id="linearGradient3702-501-757-0">
      <stop
         offset="0"
         style="stop-color:#181818;stop-opacity:0"
         id="stop2895-0" />
      <stop
         offset="0.5"
         style="stop-color:#181818;stop-opacity:1"
         id="stop2897-2" />
      <stop
         offset="1"
         style="stop-color:#181818;stop-opacity:0"
         id="stop2899-6" />
    </linearGradient>
    <radialGradient
       gradientTransform="matrix(0.19808629,0,0,0.02160941,8.7980455,1048.5153)"
       gradientUnits="userSpaceOnUse"
       xlink:href="#linearGradient3811"
       id="radialGradient4111"
       fy="93.467628"
       fx="-4.0287771"
       r="35.338131"
       cy="93.467628"
       cx="-4.0287771" />
    <linearGradient
       id="linearGradient3811">
      <stop
         offset="0"
         style="stop-color:#000000;stop-opacity:1"
         id="stop3813" />
      <stop
         offset="1"
         style="stop-color:#000000;stop-opacity:0"
         id="stop3815" />
    </linearGradient>
  </defs>
  <sodipodi:namedview
     id="base"
     pagecolor="#ffffff"
     bordercolor="#666666"
     borderopacity="1.0"
     inkscape:pageopacity="0.0"
     inkscape:pageshadow="2"
     inkscape:zoom="16"
     inkscape:cx="7.7969829"
     inkscape:cy="14.785306"
     inkscape:document-units="px"
     inkscape:current-layer="layer1"
     showgrid="false"
     units="px"
     showguides="false"
     inkscape:guide-bbox="true"
     inkscape:window-width="1920"
     inkscape:window-height="1017"
     inkscape:window-x="0"
     inkscape:window-y="30"
     inkscape:window-maximized="1">
    <sodipodi:guide
       position="-5.3033009,45.583134"
       orientation="0,1"
       id="guide4410" />
    <sodipodi:guide
       position="-14.20527,56.473841"
       orientation="0,1"
       id="guide4415" />
    <sodipodi:guide
       position="-21.361607,55.691965"
       orientation="-0.5900496,0.807367"
       id="guide4417" />
    <sodipodi:guide
       position="-3.7565048,46.751123"
       orientation="-0.59590937,-0.80305169"
       id="guide4419" />
  </sodipodi:namedview>
  <metadata
     id="metadata3424">
    <rdf:RDF>
      <cc:Work
         rdf:about="">
        <dc:format>image/svg+xml</dc:format>
        <dc:type
           rdf:resource="http://purl.org/dc/dcmitype/StillImage" />
        <dc:title />
      </cc:Work>
    </rdf:RDF>
  </metadata>
  <g
     inkscape:label="Camada 1"
     inkscape:groupmode="layer"
     id="layer1"
     transform="translate(0,-1036.3622)">
    <path
       style="color:#000000;display:inline;overflow:visible;visibility:visible;opacity:0.9;fill:url(#radialGradient3936-3);fill-opacity:1;fill-rule:nonzero;stroke:none;stroke-width:0.99999994;marker:none;enable-background:accumulate"
       d="m 8,1037.4895 c -3.631218,0 -6.5545451,2.9234 -6.5545451,6.5546 0,1.053 0.2471947,2.0456 0.6848366,2.9255 0.130482,0.1042 0.3133951,0.2093 0.5506037,0.3008 0.6039449,0.2329 1.5307885,0.3741 2.6473719,0.3753 2.2243562,0 4.9758309,-0.608 7.1029119,-1.5794 0.725207,-0.3312 1.53017,-0.8089 2.070668,-1.2004 0.03342,-0.2693 0.0527,-0.5432 0.0527,-0.8218 0,-3.6312 -2.923327,-6.5546 -6.554545,-6.5546 z m 6.217969,8.6347 c -0.448618,0.2719 -0.940304,0.5349 -1.416655,0.7524 -2.26037,1.0323 -5.0889823,1.6622 -7.4737926,1.6601 -0.8782891,-9e-4 -1.6589733,-0.077 -2.3172583,-0.236 1.2003917,1.4072 2.9866995,2.2979 4.9897369,2.2979 2.903155,0 5.351953,-1.8694 6.217969,-4.4744 z"
       id="rect5505-21-3"
       inkscape:connector-curvature="0" />
    <rect
       width="12.854545"
       height="12.854545"
       rx="6.4272723"
       ry="6.0113635"
       x="1.572726"
       y="1037.6168"
       id="rect6741-7"
       style="opacity:0.3;fill:none;stroke:url(#linearGradient4136);stroke-width:0.12727271;stroke-linecap:round;stroke-linejoin:round;stroke-miterlimit:4;stroke-dasharray:none;stroke-dashoffset:0;stroke-opacity:1" />
    <path
       style="color:#000000;display:inline;overflow:visible;visibility:visible;opacity:0.7;fill:none;stroke:#000000;stroke-width:0.12727273;stroke-linecap:round;stroke-linejoin:round;stroke-miterlimit:4;stroke-dasharray:none;stroke-dashoffset:0;stroke-opacity:1;marker:none;enable-background:accumulate"
       d="m 8,1037.4895 c -3.631218,0 -6.5545451,2.9234 -6.5545451,6.5546 0,1.053 0.2471947,2.0456 0.6848366,2.9255 0.021752,0.017 0.047165,0.035 0.071839,0.052 0.019054,0.013 0.037837,0.027 0.058665,0.04 0.021462,0.014 0.044527,0.027 0.067862,0.041 0.03298,0.019 0.067713,0.038 0.1044034,0.057 0.018097,0.01 0.035671,0.018 0.054687,0.028 0.0603,0.029 0.1238815,0.057 0.1931463,0.084 0.2264793,0.087 0.4983567,0.1617 0.8086292,0.2207 0.2068484,0.039 0.430785,0.072 0.6696733,0.097 0.2388882,0.025 0.4926434,0.042 0.7594104,0.051 0.1333836,0 0.2700862,0.01 0.409659,0.01 0.5560892,6e-4 1.1450192,-0.037 1.7490057,-0.1093 0.1509966,-0.018 0.3030617,-0.038 0.4556462,-0.06 0.3051691,-0.045 0.61284,-0.097 0.9209872,-0.1581 0.6162946,-0.1214 1.234044,-0.2742 1.8352628,-0.4544 0.300609,-0.09 0.597087,-0.1872 0.88718,-0.2906 0.43514,-0.1551 0.856002,-0.3245 1.25483,-0.5066 0.104214,-0.048 0.210299,-0.099 0.316939,-0.1519 0.02322,-0.012 0.04658,-0.024 0.06985,-0.036 0.0798,-0.04 0.159759,-0.082 0.23963,-0.124 0.03832,-0.02 0.07641,-0.041 0.114595,-0.062 0.06057,-0.033 0.120791,-0.066 0.180717,-0.1002 0.04931,-0.028 0.09878,-0.056 0.147409,-0.084 0.04226,-0.024 0.08343,-0.049 0.125035,-0.074 0.05877,-0.035 0.117889,-0.07 0.175,-0.1046 0.25721,-0.1578 0.495427,-0.3156 0.697265,-0.4616 0.0014,-10e-4 0.0029,0 0.0042,0 0.03342,-0.2693 0.0527,-0.5432 0.0527,-0.8218 0,-3.6312 -2.923327,-6.5546 -6.554545,-6.5546 z m 6.217969,8.6347 c -0.11112,0.067 -0.22479,0.1341 -0.340306,0.1998 -0.09051,0.052 -0.182937,0.1016 -0.275178,0.1514 -0.02693,0.015 -0.05326,0.03 -0.08029,0.044 -7.64e-4,4e-4 -0.0015,8e-4 -0.0022,0 -0.118883,0.063 -0.238501,0.1247 -0.358203,0.184 -3.81e-4,2e-4 -7.63e-4,5e-4 -0.0013,7e-4 -0.120027,0.06 -0.240175,0.1167 -0.359198,0.171 -0.141273,0.065 -0.284826,0.1274 -0.430292,0.1887 -0.29093,0.1227 -0.589654,0.2389 -0.894389,0.348 -0.457102,0.1638 -0.927431,0.3118 -1.404474,0.4427 -0.7950729,0.2182 -1.608682,0.3887 -2.4097301,0.5044 -0.1602097,0.023 -0.3200466,0.044 -0.4790128,0.063 -0.4768984,0.056 -0.9469163,0.092 -1.4037285,0.1064 -0.1522709,0 -0.3031156,0.01 -0.4521662,0.01 -0.1354822,-2e-4 -0.2677269,0 -0.398473,-0.01 -0.034194,-10e-4 -0.067805,0 -0.101669,0 -0.094101,0 -0.1869178,-0.01 -0.2784091,-0.013 -0.039503,0 -0.079315,0 -0.1183239,-0.01 -0.1167978,-0.01 -0.232031,-0.017 -0.3442826,-0.029 -7.637e-4,-10e-5 -0.00148,-2e-4 -0.00224,-3e-4 -0.02819,0 -0.055128,-0.01 -0.083026,-0.01 -0.086547,-0.01 -0.1718593,-0.02 -0.2555397,-0.031 -0.045563,-0.01 -0.090283,-0.013 -0.1349787,-0.02 -0.063922,-0.01 -0.1267986,-0.02 -0.1889204,-0.032 -0.047397,-0.01 -0.095114,-0.017 -0.1414418,-0.026 -0.092005,-0.018 -0.1822401,-0.038 -0.2699574,-0.059 1.2004251,1.4071 2.9867329,2.2978 4.9897703,2.2978 2.9031549,0 5.3519529,-1.8694 6.2179689,-4.4744 z"
       id="rect5505-21-3-1"
       inkscape:connector-curvature="0" />
    <path
       inkscape:connector-curvature="0"
       d="m 4.3090915,1039.7146 a 0.12933873,0.12933873 0 0 0 -0.1292614,0.1293 l 0,0.444 c -0.149495,0.042 -0.286863,0.1 -0.3989701,0.1896 a 0.12933873,0.12933873 0 0 0 -2.546e-4,3e-4 c -0.2153017,0.1735 -0.328125,0.4272 -0.328125,0.7206 0,0.1572 0.032559,0.3022 0.1011719,0.4278 0.065041,0.1191 0.1527333,0.2239 0.2600142,0.3122 0.1101906,0.091 0.2618196,0.176 0.4586293,0.264 0.2017361,0.091 0.3365946,0.1598 0.3870383,0.1922 a 0.12933873,0.12933873 0 0 0 0.00125,7e-4 c 0.057482,0.036 0.09544,0.071 0.1165838,0.1 a 0.12933873,0.12933873 0 0 0 0.00125,0 c 0.017577,0.023 0.024609,0.043 0.024609,0.076 0,0.072 -0.014934,0.098 -0.060653,0.1285 a 0.12933873,0.12933873 0 0 0 -9.927e-4,6e-4 c -0.045621,0.031 -0.1304109,0.057 -0.2600141,0.057 -0.1079447,0 -0.231586,-0.017 -0.370135,-0.051 l -2.546e-4,0 c -0.1354882,-0.034 -0.3083376,-0.095 -0.5150568,-0.1824 a 0.12933873,0.12933873 0 0 0 -0.1797229,0.119 l 0,0.5854 a 0.12933873,0.12933873 0 0 0 0.074823,0.1174 c 0.2074516,0.096 0.4409522,0.1463 0.6888138,0.1692 l 0,0.4013 a 0.12933873,0.12933873 0 0 0 0.129263,0.1292 l 0.5090909,0 a 0.12933873,0.12933873 0 0 0 0.1292613,-0.1293 l 0,-0.4499 c 0.1523158,-0.042 0.2921938,-0.1002 0.4069248,-0.1877 0.2324511,-0.1762 0.3567116,-0.4363 0.3567116,-0.7372 0,-0.2178 -0.063672,-0.4149 -0.1914062,-0.5715 -0.1309097,-0.162 -0.3461146,-0.2996 -0.6473012,-0.4365 -0.2182227,-0.099 -0.3598416,-0.1703 -0.403196,-0.1977 -0.047786,-0.032 -0.077129,-0.062 -0.09098,-0.082 -0.012651,-0.02 -0.019638,-0.041 -0.019638,-0.076 0,-0.057 0.01287,-0.084 0.053693,-0.1178 0.0366,-0.03 0.099705,-0.054 0.2058238,-0.054 0.094753,0 0.1916692,0.012 0.2908382,0.035 a 0.12933873,0.12933873 0 0 0 2.545e-4,0 c 0.1004016,0.024 0.2339331,0.067 0.3969814,0.1308 a 0.12933873,0.12933873 0 0 0 0.1655541,-0.069 l 0.2137783,-0.4897 a 0.12933873,0.12933873 0 0 0 -0.069354,-0.1713 c -0.1661479,-0.069 -0.3266374,-0.122 -0.4817471,-0.1603 l -2.545e-4,0 c -0.060755,-0.015 -0.1241282,-0.022 -0.1866833,-0.031 l 0,-0.4079 a 0.12933873,0.12933873 0 0 0 -0.1292613,-0.1292 l -0.5090909,0 z m 2.290909,4.4546 a 0.12933873,0.12933873 0 0 0 -0.1292614,0.1292 l 0,0.5091 a 0.12933873,0.12933873 0 0 0 0.1292614,0.1293 l 2.6727271,0 a 0.12933873,0.12933873 0 0 0 0.1292613,-0.1293 l 0,-0.5091 a 0.12933873,0.12933873 0 0 0 -0.1292613,-0.1292 l -2.6727271,0 z"
       id="path3485"
       style="color:#000000;clip-rule:nonzero;display:inline;overflow:visible;visibility:visible;opacity:0.15;isolation:auto;mix-blend-mode:normal;color-interpolation:sRGB;color-interpolation-filters:linearRGB;solid-color:#000000;solid-opacity:1;fill:#000000;fill-opacity:1;fill-rule:nonzero;stroke:none;stroke-width:1;stroke-linecap:butt;stroke-linejoin:miter;stroke-miterlimit:4;stroke-dasharray:none;stroke-dashoffset:0;stroke-opacity:1;marker:none;color-rendering:auto;image-rendering:auto;shape-rendering:auto;text-rendering:auto;enable-background:accumulate" />
    <path
       inkscape:connector-curvature="0"
       style="color:#000000;clip-rule:nonzero;display:inline;overflow:visible;visibility:visible;opacity:0.3;isolation:auto;mix-blend-mode:normal;color-interpolation:sRGB;color-interpolation-filters:linearRGB;solid-color:#000000;solid-opacity:1;fill:#000000;fill-opacity:1;fill-rule:nonzero;stroke:none;stroke-width:1;stroke-linecap:butt;stroke-linejoin:miter;stroke-miterlimit:4;stroke-dasharray:none;stroke-dashoffset:0;stroke-opacity:1;marker:none;color-rendering:auto;image-rendering:auto;shape-rendering:auto;text-rendering:auto;enable-background:accumulate"
       d="m 4.3090915,1039.8439 0,0.5389 c -0.1780749,0.035 -0.3274129,0.1 -0.4474432,0.1956 -0.1866132,0.1504 -0.2799005,0.3572 -0.2799005,0.62 0,0.1396 0.02853,0.2616 0.085511,0.3659 0.056981,0.1043 0.1332498,0.1956 0.2286932,0.2742 0.095444,0.079 0.2386586,0.1607 0.4295454,0.2461 0.2037076,0.092 0.3381649,0.1591 0.4036932,0.2011 0.066953,0.042 0.1176934,0.086 0.1518822,0.132 0.034189,0.045 0.051207,0.096 0.051207,0.1546 0,0.1043 -0.039229,0.1828 -0.1175781,0.2357 -0.076925,0.053 -0.1880431,0.079 -0.333345,0.079 -0.121085,0 -0.2549782,-0.018 -0.4017046,-0.055 -0.1453019,-0.037 -0.3233672,-0.1 -0.5341974,-0.1889 l 0,0.5854 c 0.224463,0.1044 0.4802257,0.1603 0.7636363,0.1733 l 0,0.5145 0.5090909,0 0,-0.5451 c 0.1820536,-0.037 0.3350998,-0.1017 0.458132,-0.1956 0.2037076,-0.1545 0.3055043,-0.3659 0.3055043,-0.6342 0,-0.1937 -0.054058,-0.3569 -0.1623225,-0.4897 -0.1082641,-0.1341 -0.3085397,-0.2677 -0.6005681,-0.4004 -0.2208019,-0.1003 -0.361015,-0.1694 -0.4208451,-0.2073 -0.058406,-0.039 -0.101201,-0.079 -0.1282671,-0.1199 -0.027066,-0.042 -0.040518,-0.091 -0.040518,-0.1464 0,-0.089 0.033473,-0.1617 0.1004261,-0.2172 0.066953,-0.056 0.1629938,-0.084 0.2883522,-0.084 0.1054152,0 0.2124035,0.013 0.3206677,0.039 0.1096886,0.026 0.2477122,0.071 0.414382,0.136 l 0.2137784,-0.4897 c -0.1609716,-0.066 -0.3156984,-0.1178 -0.4638494,-0.1544 -0.091785,-0.023 -0.1869559,-0.038 -0.2848721,-0.046 l 0,-0.5175 z m 2.290909,4.4545 0,0.5091 2.6727271,0 0,-0.5091 z"
       id="rect4237-3" />
    <g
       id="g4388"
       transform="matrix(0.12727272,0,0,0.12727272,-0.14545408,918.57074)">
      <path
         id="rect4237"
         d="m 35.000003,951.86057 0,4.23438 c -1.39916,0.27279 -2.57253,0.78283 -3.515625,1.53711 -1.466247,1.18163 -2.199219,2.80589 -2.199219,4.87109 0,1.09647 0.224166,2.05531 0.671875,2.875 0.447709,0.81969 1.046963,1.53686 1.796875,2.1543 0.749913,0.61743 1.875175,1.26293 3.375,1.93359 1.60056,0.72389 2.65701,1.25007 3.171875,1.58008 0.526058,0.33001 0.924734,0.67516 1.19336,1.03711 0.268625,0.3513 0.402343,0.75709 0.402343,1.21484 0,0.8197 -0.308228,1.43639 -0.923828,1.85156 -0.604407,0.41517 -1.477482,0.62305 -2.61914,0.62305 -0.951382,0 -2.0034,-0.14421 -3.15625,-0.43164 -1.141658,-0.28742 -2.540743,-0.78178 -4.197266,-1.48437 l 0,4.5996 c 1.763638,0.82006 3.773202,1.25914 6,1.36133 l 0,4.04297 4,0 0,-4.2832 c 1.430421,-0.28918 2.632927,-0.79899 3.599609,-1.53711 1.60056,-1.21357 2.400391,-2.87464 2.400391,-4.98242 0,-1.52229 -0.424744,-2.80441 -1.275391,-3.84766 -0.850647,-1.05389 -2.424241,-2.10324 -4.71875,-3.14648 -1.734872,-0.78776 -2.836546,-1.33084 -3.30664,-1.62891 -0.458902,-0.30872 -0.795151,-0.62204 -1.007813,-0.94141 -0.212662,-0.33 -0.318359,-0.71393 -0.318359,-1.15039 0,-0.70259 0.263004,-1.27057 0.789062,-1.70703 0.526058,-0.43646 1.280666,-0.65625 2.265625,-0.65625 0.828262,0 1.668885,0.10243 2.519532,0.30469 0.861839,0.20226 1.94631,0.55738 3.255859,1.06836 l 1.679687,-3.84766 c -1.264777,-0.52162 -2.480487,-0.92546 -3.644531,-1.21289 -0.721164,-0.1798 -1.468939,-0.29791 -2.238281,-0.36523 l 0,-4.06641 z m 18,35 0,4 21,0 0,-4 z"
         style="color:#000000;clip-rule:nonzero;display:inline;overflow:visible;visibility:visible;opacity:1;isolation:auto;mix-blend-mode:normal;color-interpolation:sRGB;color-interpolation-filters:linearRGB;solid-color:#000000;solid-opacity:1;fill:#ffffff;fill-opacity:1;fill-rule:nonzero;stroke:none;stroke-width:5;stroke-linecap:butt;stroke-linejoin:miter;stroke-miterlimit:4;stroke-dasharray:none;stroke-dashoffset:0;stroke-opacity:1;marker:none;color-rendering:auto;image-rendering:auto;shape-rendering:auto;text-rendering:auto;enable-background:accumulate"
         inkscape:connector-curvature="0" />
    </g>
    <path
       style="opacity:0.15;fill:#000000;fill-opacity:1;fill-rule:evenodd;stroke:#000000;stroke-width:0.25454545;stroke-linecap:butt;stroke-linejoin:round;stroke-miterlimit:4;stroke-dasharray:none;stroke-opacity:1"
       d="m 10.568281,1041.3846 -1.3218393,0.9662 0.3082386,0.4218 1.2245027,-0.9175 1.229474,0.921 0.30799,-0.4218 -1.311287,-0.9697 z"
       id="path4393-56"
       inkscape:connector-curvature="0"
       sodipodi:nodetypes="cccccccc" />
    <path
       style="opacity:0.3;fill:#00000f;fill-opacity:0.94117647;fill-rule:evenodd;stroke:none;stroke-width:1px;stroke-linecap:butt;stroke-linejoin:miter;stroke-opacity:1"
       d="m 10.568167,1041.4238 -1.3218396,0.9662 0.3082386,0.4218 1.224503,-0.9175 1.229474,0.921 0.30799,-0.4218 -1.311287,-0.9698 z"
       id="path4393-5"
       inkscape:connector-curvature="0"
       sodipodi:nodetypes="cccccccc" />
    <path
       style="fill:#ffffff;fill-rule:evenodd;stroke:none;stroke-width:1px;stroke-linecap:butt;stroke-linejoin:miter;stroke-opacity:1"
       d="m 10.568167,1041.2574 -1.3218396,0.9661 0.3082386,0.4219 1.224503,-0.9175 1.229474,0.9209 0.30799,-0.4218 -1.311287,-0.9697 z"
       id="path4393"
       inkscape:connector-curvature="0"
       sodipodi:nodetypes="cccccccc" />
  </g>
</svg>
