<?xml version="1.0" encoding="UTF-8" standalone="no"?>
<svg
   xmlns:dc="http://purl.org/dc/elements/1.1/"
   xmlns:cc="http://creativecommons.org/ns#"
   xmlns:rdf="http://www.w3.org/1999/02/22-rdf-syntax-ns#"
   xmlns:svg="http://www.w3.org/2000/svg"
   xmlns="http://www.w3.org/2000/svg"
   version="1.1"
   id="Vrstva_1"
   x="0px"
   y="0px"
   viewBox="0 0 239.99999 84"
   xml:space="preserve"
   width="240"
   height="84"><metadata
     id="metadata29"><rdf:RDF><cc:Work
         rdf:about=""><dc:format>image/svg+xml</dc:format><dc:type
           rdf:resource="http://purl.org/dc/dcmitype/StillImage" /><dc:title></dc:title></cc:Work></rdf:RDF></metadata><defs
     id="defs27" /><style
     type="text/css"
     id="style3">
	.st0{fill:#00A2E2;}
</style><g
     id="g3357"
     transform="matrix(0.77644775,0,0,0.77644775,-8.9499963e-8,0.723552)"><polygon
       id="polygon5"
       points="55.4,57.7 0,57.7 11.1,76.9 44.5,76.9 61.1,105.7 83.3,105.7 55.5,57.7 55.5,57.7 " /><polygon
       id="polygon7"
       points="86,52.9 102.7,24 91.6,4.8 63.9,52.9 91.6,101 102.7,81.8 " /><polygon
       id="polygon9"
       points="38.9,19.2 72.2,19.2 83.3,0 27.8,0 0,48.1 22.2,48.1 "
       class="st0"
       style="fill:#00a2e2" /><g
       id="g11"><path
         id="path13"
         d="m 141.3,40.2 0,30 -9.1,0 0,-30 -10.7,0 0,-7.8 30.5,0 0,7.8 -10.7,0 z" /><path
         id="path15"
         d="m 187,62.1 c -0.8,1.9 -1.9,3.5 -3.3,4.8 -1.4,1.3 -3.1,2.4 -5.2,3.1 -2,0.7 -4.2,1.1 -6.7,1.1 -2.5,0 -4.7,-0.4 -6.7,-1.1 -2,-0.7 -3.7,-1.8 -5.1,-3.1 -1.4,-1.3 -2.5,-2.9 -3.2,-4.8 -0.7,-1.9 -1.1,-3.9 -1.1,-6.2 l 0,-23.5 9.1,0 0,22.8 c 0,1 0.1,2 0.4,2.9 0.3,0.9 0.7,1.8 1.2,2.5 0.6,0.7 1.3,1.3 2.2,1.7 0.9,0.4 2,0.6 3.3,0.6 1.3,0 2.4,-0.2 3.3,-0.6 0.9,-0.4 1.6,-1 2.2,-1.7 0.6,-0.7 1,-1.6 1.2,-2.5 0.2,-0.9 0.4,-1.9 0.4,-2.9 l 0,-22.8 9.1,0 0,23.5 c 0.1,2.3 -0.3,4.4 -1.1,6.2 z" /><path
         id="path17"
         d="m 215.8,70.2 -8.2,-15 -3.1,0 0,15 -8.9,0 0,-37.8 14.4,0 c 1.8,0 3.6,0.2 5.3,0.6 1.7,0.4 3.3,1 4.6,1.9 1.4,0.9 2.5,2.1 3.3,3.5 0.8,1.5 1.2,3.3 1.2,5.4 0,2.6 -0.7,4.7 -2.1,6.5 -1.4,1.7 -3.3,3 -5.8,3.7 l 9.9,16.2 -10.6,0 z m -0.4,-26.3 c 0,-0.9 -0.2,-1.6 -0.6,-2.2 -0.4,-0.6 -0.9,-1 -1.4,-1.3 -0.6,-0.3 -1.3,-0.5 -2,-0.6 -0.7,-0.1 -1.4,-0.2 -2.1,-0.2 l -4.9,0 0,8.8 4.3,0 c 0.8,0 1.5,-0.1 2.3,-0.2 0.8,-0.1 1.5,-0.3 2.1,-0.7 0.6,-0.3 1.2,-0.8 1.6,-1.4 0.5,-0.4 0.7,-1.2 0.7,-2.2 z" /><path
         id="path19"
         d="m 251.2,70.2 -8.2,-15 -3.1,0 0,15 -8.9,0 0,-37.8 14.4,0 c 1.8,0 3.6,0.2 5.3,0.6 1.7,0.4 3.3,1 4.6,1.9 1.4,0.9 2.5,2.1 3.3,3.5 0.8,1.5 1.2,3.3 1.2,5.4 0,2.6 -0.7,4.7 -2.1,6.5 -1.4,1.7 -3.3,3 -5.8,3.7 l 9.9,16.2 -10.6,0 z m -0.4,-26.3 c 0,-0.9 -0.2,-1.6 -0.6,-2.2 -0.4,-0.6 -0.9,-1 -1.4,-1.3 -0.6,-0.3 -1.3,-0.5 -2,-0.6 -0.7,-0.1 -1.4,-0.2 -2.1,-0.2 l -4.9,0 0,8.8 4.3,0 c 0.8,0 1.5,-0.1 2.3,-0.2 0.8,-0.1 1.5,-0.3 2.1,-0.7 0.6,-0.3 1.2,-0.8 1.6,-1.4 0.5,-0.4 0.7,-1.2 0.7,-2.2 z" /><path
         id="path21"
         d="m 266.4,70.2 0,-37.8 9.2,0 0,37.8 -9.2,0 z" /><path
         id="path23"
         d="m 303.3,42.2 c -0.8,-1 -1.8,-1.8 -3.1,-2.4 -1.3,-0.6 -2.5,-0.9 -3.7,-0.9 -0.6,0 -1.2,0.1 -1.8,0.2 -0.6,0.1 -1.2,0.3 -1.7,0.6 -0.5,0.3 -0.9,0.7 -1.3,1.2 -0.3,0.5 -0.5,1.1 -0.5,1.8 0,0.6 0.1,1.2 0.4,1.6 0.3,0.4 0.7,0.8 1.2,1.1 0.5,0.3 1.1,0.6 1.8,0.9 0.7,0.3 1.5,0.5 2.4,0.8 1.3,0.4 2.6,0.9 4,1.4 1.4,0.5 2.7,1.2 3.8,2.1 1.1,0.9 2.1,1.9 2.8,3.2 0.7,1.3 1.1,2.8 1.1,4.7 0,2.2 -0.4,4 -1.2,5.6 -0.8,1.6 -1.9,2.9 -3.2,3.9 -1.3,1 -2.9,1.8 -4.6,2.3 -1.7,0.5 -3.5,0.7 -5.4,0.7 -2.7,0 -5.3,-0.5 -7.8,-1.4 -2.5,-0.9 -4.6,-2.3 -6.3,-4 l 6,-6.1 c 0.9,1.1 2.1,2.1 3.7,2.9 1.5,0.8 3,1.1 4.5,1.1 0.7,0 1.3,-0.1 2,-0.2 0.6,-0.1 1.2,-0.4 1.7,-0.7 0.5,-0.3 0.9,-0.7 1.1,-1.3 0.3,-0.5 0.4,-1.2 0.4,-1.9 0,-0.7 -0.2,-1.3 -0.5,-1.8 -0.4,-0.5 -0.9,-1 -1.5,-1.4 -0.7,-0.4 -1.5,-0.8 -2.5,-1.1 -1,-0.3 -2.1,-0.7 -3.3,-1.1 -1.2,-0.4 -2.4,-0.9 -3.6,-1.4 -1.2,-0.5 -2.2,-1.2 -3.1,-2.1 -0.9,-0.8 -1.6,-1.9 -2.2,-3 -0.6,-1.1 -0.8,-2.6 -0.8,-4.4 0,-2.1 0.4,-3.9 1.3,-5.4 0.9,-1.5 2,-2.7 3.4,-3.7 1.4,-1 3,-1.7 4.7,-2.1 1.7,-0.4 3.5,-0.7 5.3,-0.7 2.1,0 4.3,0.4 6.5,1.2 2.2,0.8 4.2,1.9 5.8,3.5 l -5.8,6.3 z" /></g></g></svg>