<?xml version="1.0" encoding="UTF-8" standalone="no"?>
<!-- Created with Inkscape (http://www.inkscape.org/) -->

<svg
   xmlns:dc="http://purl.org/dc/elements/1.1/"
   xmlns:cc="http://creativecommons.org/ns#"
   xmlns:rdf="http://www.w3.org/1999/02/22-rdf-syntax-ns#"
   xmlns:svg="http://www.w3.org/2000/svg"
   xmlns="http://www.w3.org/2000/svg"
   xmlns:xlink="http://www.w3.org/1999/xlink"
   xmlns:sodipodi="http://sodipodi.sourceforge.net/DTD/sodipodi-0.dtd"
   xmlns:inkscape="http://www.inkscape.org/namespaces/inkscape"
   width="32"
   height="32"
   viewBox="0 0 32 32"
   id="svg3419"
   version="1.1"
   inkscape:version="0.91 r13725"
   sodipodi:docname="com.github.muriloventuroso.easyssh.svg">
  <defs
     id="defs3421">
    <linearGradient
       gradientTransform="matrix(0.6948403,0,0,0.6948403,-0.67616843,1019.0499)"
       gradientUnits="userSpaceOnUse"
       xlink:href="#linearGradient3924"
       id="linearGradient4136"
       y2="43"
       x2="23.99999"
       y1="4.999989"
       x1="23.99999" />
    <linearGradient
       id="linearGradient3924">
      <stop
         offset="0"
         style="stop-color:#ffffff;stop-opacity:1"
         id="stop3926" />
      <stop
         offset="0.06316455"
         style="stop-color:#ffffff;stop-opacity:0.23529412"
         id="stop3928" />
      <stop
         offset="0.95056331"
         style="stop-color:#ffffff;stop-opacity:0.15686275"
         id="stop3930" />
      <stop
         offset="1"
         style="stop-color:#ffffff;stop-opacity:0.39215687"
         id="stop3932" />
    </linearGradient>
    <radialGradient
       gradientTransform="matrix(0,6.1446309,-7.543644,0,91.671567,966.55881)"
       gradientUnits="userSpaceOnUse"
       xlink:href="#linearGradient2867-449-88-871-390-598-476-591-434-148-57-177-8-3-3-6-4-8-8-8-5-7-8"
       id="radialGradient3936-3"
       fy="9.9571075"
       fx="7.1183534"
       r="8.9330635"
       cy="9.9571075"
       cx="7.1183534" />
    <linearGradient
       id="linearGradient2867-449-88-871-390-598-476-591-434-148-57-177-8-3-3-6-4-8-8-8-5-7-8">
      <stop
         offset="0"
         style="stop-color:#404648;stop-opacity:1"
         id="stop3750-1-0-7-6-6-1-3-9-3-9-2" />
      <stop
         offset="1"
         style="stop-color:#0c1011;stop-opacity:1"
         id="stop3754-1-8-5-2-7-6-7-1-9-1-0" />
    </linearGradient>
    <radialGradient
       gradientTransform="matrix(2.003784,0,0,1.4,27.98813,-17.4)"
       gradientUnits="userSpaceOnUse"
       xlink:href="#linearGradient3688-166-749-5"
       id="radialGradient4093"
       fy="43.5"
       fx="4.9929786"
       r="2.5"
       cy="43.5"
       cx="4.9929786" />
    <linearGradient
       id="linearGradient3688-166-749-5">
      <stop
         offset="0"
         style="stop-color:#181818;stop-opacity:1"
         id="stop2883-0" />
      <stop
         offset="1"
         style="stop-color:#181818;stop-opacity:0"
         id="stop2885-5" />
    </linearGradient>
    <radialGradient
       gradientTransform="matrix(2.003784,0,0,1.4,-20.01187,-104.4)"
       gradientUnits="userSpaceOnUse"
       xlink:href="#linearGradient3688-166-749-5"
       id="radialGradient4095"
       fy="43.5"
       fx="4.9929786"
       r="2.5"
       cy="43.5"
       cx="4.9929786" />
    <linearGradient
       gradientUnits="userSpaceOnUse"
       xlink:href="#linearGradient3702-501-757-0"
       id="linearGradient4097"
       y2="39.999443"
       x2="25.058096"
       y1="47.027729"
       x1="25.058096" />
    <linearGradient
       id="linearGradient3702-501-757-0">
      <stop
         offset="0"
         style="stop-color:#181818;stop-opacity:0"
         id="stop2895-0" />
      <stop
         offset="0.5"
         style="stop-color:#181818;stop-opacity:1"
         id="stop2897-2" />
      <stop
         offset="1"
         style="stop-color:#181818;stop-opacity:0"
         id="stop2899-6" />
    </linearGradient>
    <radialGradient
       gradientTransform="matrix(0.3961726,0,0,0.04321883,17.596091,1044.6683)"
       gradientUnits="userSpaceOnUse"
       xlink:href="#linearGradient3811"
       id="radialGradient4111"
       fy="93.467628"
       fx="-4.0287771"
       r="35.338131"
       cy="93.467628"
       cx="-4.0287771" />
    <linearGradient
       id="linearGradient3811">
      <stop
         offset="0"
         style="stop-color:#000000;stop-opacity:1"
         id="stop3813" />
      <stop
         offset="1"
         style="stop-color:#000000;stop-opacity:0"
         id="stop3815" />
    </linearGradient>
  </defs>
  <sodipodi:namedview
     id="base"
     pagecolor="#ffffff"
     bordercolor="#666666"
     borderopacity="1.0"
     inkscape:pageopacity="0.0"
     inkscape:pageshadow="2"
     inkscape:zoom="10.950583"
     inkscape:cx="29.184438"
     inkscape:cy="6.903279"
     inkscape:document-units="px"
     inkscape:current-layer="layer1"
     showgrid="false"
     units="px"
     showguides="false"
     inkscape:guide-bbox="true"
     inkscape:window-width="1920"
     inkscape:window-height="1017"
     inkscape:window-x="0"
     inkscape:window-y="30"
     inkscape:window-maximized="1">
    <sodipodi:guide
       position="-5.3033009,45.583134"
       orientation="0,1"
       id="guide4410" />
    <sodipodi:guide
       position="-14.20527,56.473841"
       orientation="0,1"
       id="guide4415" />
    <sodipodi:guide
       position="-21.361607,55.691965"
       orientation="-0.5900496,0.807367"
       id="guide4417" />
    <sodipodi:guide
       position="-3.7565048,46.751123"
       orientation="-0.59590937,-0.80305169"
       id="guide4419" />
  </sodipodi:namedview>
  <metadata
     id="metadata3424">
    <rdf:RDF>
      <cc:Work
         rdf:about="">
        <dc:format>image/svg+xml</dc:format>
        <dc:type
           rdf:resource="http://purl.org/dc/dcmitype/StillImage" />
        <dc:title />
      </cc:Work>
    </rdf:RDF>
  </metadata>
  <g
     inkscape:label="Camada 1"
     inkscape:groupmode="layer"
     id="layer1"
     transform="translate(0,-1020.3622)">
    <path
       style="color:#000000;display:inline;overflow:visible;visibility:visible;opacity:0.9;fill:url(#radialGradient3936-3);fill-opacity:1;fill-rule:nonzero;stroke:none;stroke-width:0.99999994;marker:none;enable-background:accumulate"
       d="m 16,1022.617 c -7.2624362,0 -13.1090907,5.8466 -13.1090907,13.109 0,2.1061 0.4943894,4.0912 1.3696732,5.8511 0.2609641,0.2083 0.6267902,0.4186 1.1012074,0.6016 1.2078899,0.4659 3.0615772,0.7481 5.2947441,0.7507 4.448713,0 9.951661,-1.2161 14.205824,-3.159 1.450413,-0.6624 3.06034,-1.6178 4.141336,-2.4007 0.06684,-0.5386 0.105397,-1.0864 0.105397,-1.6437 0,-7.2624 -5.846655,-13.109 -13.109091,-13.109 z m 12.435938,17.2693 c -0.897235,0.5439 -1.880608,1.0698 -2.83331,1.5049 -4.520739,2.0645 -10.177965,3.3243 -14.947585,3.32 -1.7565788,-0 -3.3179471,-0.1538 -4.6345172,-0.4718 2.4007836,2.8143 5.9733992,4.5957 9.9794742,4.5957 5.80631,0 10.703906,-3.7388 12.435938,-8.9488 z"
       id="rect5505-21-3"
       inkscape:connector-curvature="0" />
    <rect
       width="25.709091"
       height="25.709091"
       rx="12.854546"
       ry="12.022727"
       x="3.1454515"
       y="1022.8715"
       id="rect6741-7"
       style="opacity:0.3;fill:none;stroke:url(#linearGradient4136);stroke-width:0.25454542;stroke-linecap:round;stroke-linejoin:round;stroke-miterlimit:4;stroke-dasharray:none;stroke-dashoffset:0;stroke-opacity:1" />
    <path
       style="color:#000000;display:inline;overflow:visible;visibility:visible;opacity:0.7;fill:none;stroke:#000000;stroke-width:0.25454545;stroke-linecap:round;stroke-linejoin:round;stroke-miterlimit:4;stroke-dasharray:none;stroke-dashoffset:0;stroke-opacity:1;marker:none;enable-background:accumulate"
       d="m 16,1022.617 c -7.2624362,0 -13.1090907,5.8466 -13.1090907,13.109 0,2.1061 0.4943894,4.0912 1.3696732,5.8511 0.043503,0.035 0.094331,0.069 0.1436789,0.1039 0.038108,0.027 0.075674,0.053 0.1173297,0.08 0.042923,0.027 0.089053,0.054 0.1357244,0.082 0.065959,0.038 0.1354253,0.076 0.208807,0.1133 0.036194,0.019 0.071343,0.037 0.1093748,0.055 0.1206003,0.057 0.2477631,0.1141 0.3862926,0.1676 0.4529588,0.1747 0.9967134,0.3234 1.6172586,0.4415 0.4136967,0.079 0.8615699,0.1436 1.3393466,0.1933 0.4777765,0.05 0.9852869,0.084 1.5188208,0.102 0.2667671,0.01 0.5401721,0.014 0.8193181,0.014 1.112178,10e-4 2.290039,-0.075 3.498011,-0.2188 0.301994,-0.036 0.606124,-0.076 0.911293,-0.1208 0.610338,-0.089 1.22568,-0.1948 1.841974,-0.3162 1.23259,-0.2428 2.468089,-0.5482 3.670526,-0.9088 0.601219,-0.1802 1.194174,-0.3744 1.774361,-0.5812 0.870279,-0.3101 1.712003,-0.6489 2.509659,-1.0132 0.208429,-0.095 0.420599,-0.1977 0.633877,-0.3037 0.04645,-0.023 0.09316,-0.048 0.139703,-0.071 0.159589,-0.081 0.319518,-0.1632 0.47926,-0.2481 0.07665,-0.041 0.152824,-0.082 0.229191,-0.1238 0.121138,-0.066 0.241581,-0.1329 0.361434,-0.2004 0.09861,-0.056 0.197568,-0.1111 0.294817,-0.1675 0.08452,-0.049 0.166867,-0.098 0.25007,-0.1477 0.117537,-0.07 0.235778,-0.1392 0.35,-0.2093 0.514421,-0.3154 0.990854,-0.6312 1.39453,-0.9232 0.0028,0 0.0057,0 0.0085,-0.01 0.06684,-0.5386 0.1054,-1.0864 0.1054,-1.6437 0,-7.2624 -5.846655,-13.109 -13.109091,-13.109 z m 12.435938,17.2693 c -0.222239,0.1347 -0.449579,0.2683 -0.680612,0.3997 -0.181025,0.103 -0.365873,0.203 -0.550355,0.3028 -0.05386,0.029 -0.106525,0.06 -0.160582,0.089 -0.0015,8e-4 -0.003,0 -0.0045,0 -0.237766,0.1265 -0.477003,0.2493 -0.716406,0.3679 -7.64e-4,5e-4 -0.0015,0 -0.0025,0 -0.240055,0.119 -0.480351,0.2334 -0.718396,0.3421 -0.282546,0.129 -0.569652,0.2547 -0.860583,0.3773 -0.581862,0.2453 -1.179308,0.4777 -1.788778,0.6961 -0.914206,0.3275 -1.854862,0.6236 -2.808949,0.8854 -1.590146,0.4364 -3.217364,0.7772 -4.81946,1.0087 -0.32042,0.046 -0.640094,0.088 -0.958026,0.1258 -0.953797,0.1123 -1.893833,0.1843 -2.807457,0.2128 -0.304542,0.01 -0.606231,0.014 -0.904333,0.014 -0.270964,-2e-4 -0.535453,-0.01 -0.7969454,-0.013 -0.068389,0 -0.1356096,0 -0.2033381,-0.01 -0.1882019,-0.01 -0.3738356,-0.016 -0.5568181,-0.026 -0.079006,0 -0.1586307,-0.01 -0.2366479,-0.014 -0.2335956,-0.016 -0.464062,-0.035 -0.6885653,-0.057 -0.00153,-2e-4 -0.00296,-4e-4 -0.00447,-5e-4 -0.05638,-0.01 -0.1102568,-0.013 -0.1660512,-0.019 -0.1730934,-0.019 -0.3437186,-0.039 -0.5110794,-0.062 -0.091126,-0.012 -0.1805661,-0.026 -0.2699574,-0.04 -0.1278437,-0.02 -0.2535973,-0.041 -0.3778409,-0.063 -0.094793,-0.017 -0.1902282,-0.033 -0.2828835,-0.052 -0.1840104,-0.036 -0.3644803,-0.075 -0.5399148,-0.1178 2.4008503,2.8143 5.973466,4.5957 9.979541,4.5957 5.80631,0 10.703906,-3.7388 12.435938,-8.9488 z"
       id="rect5505-21-3-1"
       inkscape:connector-curvature="0" />
    <path
       inkscape:connector-curvature="0"
       d="m 8.6181827,1027.0671 a 0.25867746,0.25867746 0 0 0 -0.2585227,0.2585 l 0,0.8879 c -0.2989901,0.083 -0.5737261,0.2 -0.7979404,0.3794 a 0.25867746,0.25867746 0 0 0 -5.091e-4,5e-4 c -0.4306034,0.347 -0.65625,0.8543 -0.65625,1.4412 0,0.3144 0.065117,0.6044 0.2023438,0.8556 0.1300816,0.2382 0.3054665,0.4478 0.5200284,0.6245 0.2203812,0.1814 0.5236392,0.3519 0.9172586,0.528 0.4034721,0.1824 0.6731893,0.3196 0.7740766,0.3843 a 0.25867746,0.25867746 0 0 0 0.00249,0 c 0.1149639,0.072 0.1908806,0.1419 0.2331675,0.1989 a 0.25867746,0.25867746 0 0 0 0.00249,0 c 0.035155,0.046 0.049219,0.086 0.049219,0.1522 0,0.1438 -0.029868,0.1953 -0.1213067,0.257 a 0.25867746,0.25867746 0 0 0 -0.00199,10e-4 c -0.091243,0.063 -0.2608218,0.1134 -0.5200282,0.1134 -0.2158894,0 -0.4631719,-0.033 -0.7402701,-0.1025 l -5.091e-4,0 c -0.2709763,-0.068 -0.6166753,-0.1895 -1.0301136,-0.3649 a 0.25867746,0.25867746 0 0 0 -0.3594459,0.2382 l 0,1.1708 a 0.25867746,0.25867746 0 0 0 0.149645,0.2346 c 0.4149032,0.193 0.8819045,0.2926 1.3776277,0.3386 l 0,0.8024 a 0.25867746,0.25867746 0 0 0 0.258526,0.2585 l 1.0181818,0 a 0.25867746,0.25867746 0 0 0 0.2585227,-0.2585 l 0,-0.8999 c 0.3046318,-0.084 0.5843878,-0.2003 0.8138498,-0.3753 0.464902,-0.3525 0.713423,-0.8726 0.713423,-1.4746 0,-0.4356 -0.127344,-0.8296 -0.382812,-1.143 -0.26182,-0.3238 -0.69223,-0.5991 -1.2946029,-0.873 -0.4364454,-0.1981 -0.7196832,-0.3406 -0.8063921,-0.3952 -0.095572,-0.065 -0.1542588,-0.1239 -0.18196,-0.1651 -0.025302,-0.04 -0.039276,-0.082 -0.039276,-0.1511 0,-0.1143 0.02574,-0.1679 0.1073864,-0.2357 0.0732,-0.061 0.1994088,-0.1073 0.4116476,-0.1073 0.1895068,0 0.3833383,0.023 0.5816763,0.071 a 0.25867746,0.25867746 0 0 0 5.091e-4,0 c 0.2008032,0.047 0.4678662,0.1342 0.7939632,0.2615 a 0.25867746,0.25867746 0 0 0 0.331108,-0.1377 l 0.427556,-0.9795 a 0.25867746,0.25867746 0 0 0 -0.138707,-0.3425 c -0.332296,-0.137 -0.653275,-0.244 -0.963494,-0.3207 l -5.09e-4,0 c -0.12151,-0.03 -0.248257,-0.043 -0.3733668,-0.061 l 0,-0.8159 a 0.25867746,0.25867746 0 0 0 -0.2585227,-0.2585 l -1.0181818,0 z m 4.5818183,8.9091 a 0.25867746,0.25867746 0 0 0 -0.258523,0.2585 l 0,1.0182 a 0.25867746,0.25867746 0 0 0 0.258523,0.2585 l 5.345454,0 a 0.25867746,0.25867746 0 0 0 0.258523,-0.2585 l 0,-1.0182 a 0.25867746,0.25867746 0 0 0 -0.258523,-0.2585 l -5.345454,0 z"
       id="path3485"
       style="color:#000000;clip-rule:nonzero;display:inline;overflow:visible;visibility:visible;opacity:0.15;isolation:auto;mix-blend-mode:normal;color-interpolation:sRGB;color-interpolation-filters:linearRGB;solid-color:#000000;solid-opacity:1;fill:#000000;fill-opacity:1;fill-rule:nonzero;stroke:none;stroke-width:1;stroke-linecap:butt;stroke-linejoin:miter;stroke-miterlimit:4;stroke-dasharray:none;stroke-dashoffset:0;stroke-opacity:1;marker:none;color-rendering:auto;image-rendering:auto;shape-rendering:auto;text-rendering:auto;enable-background:accumulate" />
    <path
       inkscape:connector-curvature="0"
       style="color:#000000;clip-rule:nonzero;display:inline;overflow:visible;visibility:visible;opacity:0.3;isolation:auto;mix-blend-mode:normal;color-interpolation:sRGB;color-interpolation-filters:linearRGB;solid-color:#000000;solid-opacity:1;fill:#000000;fill-opacity:1;fill-rule:nonzero;stroke:none;stroke-width:1;stroke-linecap:butt;stroke-linejoin:miter;stroke-miterlimit:4;stroke-dasharray:none;stroke-dashoffset:0;stroke-opacity:1;marker:none;color-rendering:auto;image-rendering:auto;shape-rendering:auto;text-rendering:auto;enable-background:accumulate"
       d="m 8.6181827,1027.3256 0,1.0778 c -0.3561498,0.07 -0.6548258,0.1993 -0.8948863,0.3913 -0.3732265,0.3008 -0.5598012,0.7142 -0.5598012,1.2399 0,0.2791 0.05706,0.5232 0.1710227,0.7318 0.1139623,0.2087 0.2664997,0.3912 0.4573864,0.5484 0.1908869,0.1572 0.4773172,0.3215 0.8590908,0.4922 0.4074153,0.1843 0.6763299,0.3182 0.8073864,0.4022 0.1339057,0.084 0.2353868,0.1719 0.3037644,0.264 0.068377,0.089 0.1024145,0.1927 0.1024145,0.3092 0,0.2087 -0.078458,0.3656 -0.2351562,0.4713 -0.153849,0.1057 -0.3760863,0.1586 -0.6666901,0.1586 -0.24217,0 -0.5099564,-0.037 -0.8034091,-0.1099 -0.2906039,-0.073 -0.6467346,-0.1989 -1.068395,-0.3778 l 0,1.1708 c 0.448926,0.2088 0.9604514,0.3205 1.5272727,0.3465 l 0,1.0292 1.0181818,0 0,-1.0903 c 0.3641075,-0.074 0.6701995,-0.2034 0.9162645,-0.3913 0.407415,-0.3089 0.611008,-0.7317 0.611008,-1.2682 0,-0.3875 -0.108116,-0.7139 -0.324645,-0.9794 -0.216528,-0.2683 -0.617079,-0.5354 -1.2011361,-0.801 -0.4416038,-0.2005 -0.7220299,-0.3387 -0.8416902,-0.4146 -0.1168114,-0.079 -0.202402,-0.1583 -0.2565342,-0.2396 -0.054132,-0.084 -0.081037,-0.1817 -0.081037,-0.2928 0,-0.1789 0.066946,-0.3235 0.2008521,-0.4346 0.1339057,-0.1111 0.3259877,-0.167 0.5767046,-0.167 0.2108303,0 0.424807,0.026 0.6413354,0.078 0.2193772,0.051 0.4954242,0.1418 0.8287642,0.2719 l 0.427557,-0.9794 c -0.321944,-0.1328 -0.631397,-0.2356 -0.927699,-0.3087 -0.183569,-0.046 -0.373912,-0.076 -0.5697445,-0.093 l 0,-1.0351 z m 4.5818183,8.9091 0,1.0182 5.345454,0 0,-1.0182 z"
       id="rect4237-3" />
    <g
       id="g4388"
       transform="matrix(0.25454545,0,0,0.25454545,-0.2909088,784.77928)">
      <path
         id="rect4237"
         d="m 35.000003,951.86057 0,4.23438 c -1.39916,0.27279 -2.57253,0.78283 -3.515625,1.53711 -1.466247,1.18163 -2.199219,2.80589 -2.199219,4.87109 0,1.09647 0.224166,2.05531 0.671875,2.875 0.447709,0.81969 1.046963,1.53686 1.796875,2.1543 0.749913,0.61743 1.875175,1.26293 3.375,1.93359 1.60056,0.72389 2.65701,1.25007 3.171875,1.58008 0.526058,0.33001 0.924734,0.67516 1.19336,1.03711 0.268625,0.3513 0.402343,0.75709 0.402343,1.21484 0,0.8197 -0.308228,1.43639 -0.923828,1.85156 -0.604407,0.41517 -1.477482,0.62305 -2.61914,0.62305 -0.951382,0 -2.0034,-0.14421 -3.15625,-0.43164 -1.141658,-0.28742 -2.540743,-0.78178 -4.197266,-1.48437 l 0,4.5996 c 1.763638,0.82006 3.773202,1.25914 6,1.36133 l 0,4.04297 4,0 0,-4.2832 c 1.430421,-0.28918 2.632927,-0.79899 3.599609,-1.53711 1.60056,-1.21357 2.400391,-2.87464 2.400391,-4.98242 0,-1.52229 -0.424744,-2.80441 -1.275391,-3.84766 -0.850647,-1.05389 -2.424241,-2.10324 -4.71875,-3.14648 -1.734872,-0.78776 -2.836546,-1.33084 -3.30664,-1.62891 -0.458902,-0.30872 -0.795151,-0.62204 -1.007813,-0.94141 -0.212662,-0.33 -0.318359,-0.71393 -0.318359,-1.15039 0,-0.70259 0.263004,-1.27057 0.789062,-1.70703 0.526058,-0.43646 1.280666,-0.65625 2.265625,-0.65625 0.828262,0 1.668885,0.10243 2.519532,0.30469 0.861839,0.20226 1.94631,0.55738 3.255859,1.06836 l 1.679687,-3.84766 c -1.264777,-0.52162 -2.480487,-0.92546 -3.644531,-1.21289 -0.721164,-0.1798 -1.468939,-0.29791 -2.238281,-0.36523 l 0,-4.06641 z m 18,35 0,4 21,0 0,-4 z"
         style="color:#000000;clip-rule:nonzero;display:inline;overflow:visible;visibility:visible;opacity:1;isolation:auto;mix-blend-mode:normal;color-interpolation:sRGB;color-interpolation-filters:linearRGB;solid-color:#000000;solid-opacity:1;fill:#ffffff;fill-opacity:1;fill-rule:nonzero;stroke:none;stroke-width:5;stroke-linecap:butt;stroke-linejoin:miter;stroke-miterlimit:4;stroke-dasharray:none;stroke-dashoffset:0;stroke-opacity:1;marker:none;color-rendering:auto;image-rendering:auto;shape-rendering:auto;text-rendering:auto;enable-background:accumulate"
         inkscape:connector-curvature="0" />
    </g>
    <path
       style="opacity:0.15;fill:#000000;fill-opacity:1;fill-rule:evenodd;stroke:#000000;stroke-width:0.5090909;stroke-linecap:butt;stroke-linejoin:round;stroke-miterlimit:4;stroke-dasharray:none;stroke-opacity:1"
       d="m 21.136562,1030.4071 -2.643679,1.9323 0.616478,0.8437 2.449005,-1.835 2.458949,1.842 0.61598,-0.8437 -2.622575,-1.9395 z"
       id="path4393-56"
       inkscape:connector-curvature="0"
       sodipodi:nodetypes="cccccccc" />
    <path
       style="opacity:0.3;fill:#00000f;fill-opacity:0.94117647;fill-rule:evenodd;stroke:none;stroke-width:1px;stroke-linecap:butt;stroke-linejoin:miter;stroke-opacity:1"
       d="m 21.136334,1030.4855 -2.643679,1.9323 0.616477,0.8437 2.449006,-1.835 2.458949,1.8419 0.61598,-0.8436 -2.622575,-1.9395 z"
       id="path4393-5"
       inkscape:connector-curvature="0"
       sodipodi:nodetypes="cccccccc" />
    <path
       style="fill:#ffffff;fill-rule:evenodd;stroke:none;stroke-width:1px;stroke-linecap:butt;stroke-linejoin:miter;stroke-opacity:1"
       d="m 21.136334,1030.1526 -2.643679,1.9323 0.616477,0.8437 2.449006,-1.8351 2.458949,1.842 0.61598,-0.8437 -2.622575,-1.9394 z"
       id="path4393"
       inkscape:connector-curvature="0"
       sodipodi:nodetypes="cccccccc" />
  </g>
</svg>
