<?xml version="1.0" encoding="UTF-8" standalone="no"?>
<!-- Created with Inkscape (http://www.inkscape.org/) -->

<svg
   xmlns:dc="http://purl.org/dc/elements/1.1/"
   xmlns:cc="http://creativecommons.org/ns#"
   xmlns:rdf="http://www.w3.org/1999/02/22-rdf-syntax-ns#"
   xmlns:svg="http://www.w3.org/2000/svg"
   xmlns="http://www.w3.org/2000/svg"
   xmlns:xlink="http://www.w3.org/1999/xlink"
   xmlns:sodipodi="http://sodipodi.sourceforge.net/DTD/sodipodi-0.dtd"
   xmlns:inkscape="http://www.inkscape.org/namespaces/inkscape"
   width="64"
   height="64"
   viewBox="0 0 64 64"
   id="svg3419"
   version="1.1"
   inkscape:version="0.91 r13725"
   sodipodi:docname="com.github.muriloventuroso.easyssh.svg">
  <defs
     id="defs3421">
    <linearGradient
       gradientTransform="matrix(1.439312,0,0,1.439312,-2.5434912,984.50101)"
       gradientUnits="userSpaceOnUse"
       xlink:href="#linearGradient3924"
       id="linearGradient4136"
       y2="43"
       x2="23.99999"
       y1="4.999989"
       x1="23.99999" />
    <linearGradient
       id="linearGradient3924">
      <stop
         offset="0"
         style="stop-color:#ffffff;stop-opacity:1"
         id="stop3926" />
      <stop
         offset="0.06316455"
         style="stop-color:#ffffff;stop-opacity:0.23529412"
         id="stop3928" />
      <stop
         offset="0.95056331"
         style="stop-color:#ffffff;stop-opacity:0.15686275"
         id="stop3930" />
      <stop
         offset="1"
         style="stop-color:#ffffff;stop-opacity:0.39215687"
         id="stop3932" />
    </linearGradient>
    <radialGradient
       gradientTransform="matrix(0,12.728164,-15.62612,0,188.74824,875.7694)"
       gradientUnits="userSpaceOnUse"
       xlink:href="#linearGradient2867-449-88-871-390-598-476-591-434-148-57-177-8-3-3-6-4-8-8-8-5-7-8"
       id="radialGradient3936-3"
       fy="9.9571075"
       fx="7.1183534"
       r="8.9330635"
       cy="9.9571075"
       cx="7.1183534" />
    <linearGradient
       id="linearGradient2867-449-88-871-390-598-476-591-434-148-57-177-8-3-3-6-4-8-8-8-5-7-8">
      <stop
         offset="0"
         style="stop-color:#404648;stop-opacity:1"
         id="stop3750-1-0-7-6-6-1-3-9-3-9-2" />
      <stop
         offset="1"
         style="stop-color:#0c1011;stop-opacity:1"
         id="stop3754-1-8-5-2-7-6-7-1-9-1-0" />
    </linearGradient>
    <radialGradient
       gradientTransform="matrix(2.003784,0,0,1.4,27.98813,-17.4)"
       gradientUnits="userSpaceOnUse"
       xlink:href="#linearGradient3688-166-749-5"
       id="radialGradient4093"
       fy="43.5"
       fx="4.9929786"
       r="2.5"
       cy="43.5"
       cx="4.9929786" />
    <linearGradient
       id="linearGradient3688-166-749-5">
      <stop
         offset="0"
         style="stop-color:#181818;stop-opacity:1"
         id="stop2883-0" />
      <stop
         offset="1"
         style="stop-color:#181818;stop-opacity:0"
         id="stop2885-5" />
    </linearGradient>
    <radialGradient
       gradientTransform="matrix(2.003784,0,0,1.4,-20.01187,-104.4)"
       gradientUnits="userSpaceOnUse"
       xlink:href="#linearGradient3688-166-749-5"
       id="radialGradient4095"
       fy="43.5"
       fx="4.9929786"
       r="2.5"
       cy="43.5"
       cx="4.9929786" />
    <linearGradient
       gradientUnits="userSpaceOnUse"
       xlink:href="#linearGradient3702-501-757-0"
       id="linearGradient4097"
       y2="39.999443"
       x2="25.058096"
       y1="47.027729"
       x1="25.058096" />
    <linearGradient
       id="linearGradient3702-501-757-0">
      <stop
         offset="0"
         style="stop-color:#181818;stop-opacity:0"
         id="stop2895-0" />
      <stop
         offset="0.5"
         style="stop-color:#181818;stop-opacity:1"
         id="stop2897-2" />
      <stop
         offset="1"
         style="stop-color:#181818;stop-opacity:0"
         id="stop2899-6" />
    </linearGradient>
    <radialGradient
       gradientTransform="matrix(0.82064324,0,0,0.08952472,35.306189,1037.5677)"
       gradientUnits="userSpaceOnUse"
       xlink:href="#linearGradient3811"
       id="radialGradient4111"
       fy="93.467628"
       fx="-4.0287771"
       r="35.338131"
       cy="93.467628"
       cx="-4.0287771" />
    <linearGradient
       id="linearGradient3811">
      <stop
         offset="0"
         style="stop-color:#000000;stop-opacity:1"
         id="stop3813" />
      <stop
         offset="1"
         style="stop-color:#000000;stop-opacity:0"
         id="stop3815" />
    </linearGradient>
  </defs>
  <sodipodi:namedview
     id="base"
     pagecolor="#ffffff"
     bordercolor="#666666"
     borderopacity="1.0"
     inkscape:pageopacity="0.0"
     inkscape:pageshadow="2"
     inkscape:zoom="3.8716159"
     inkscape:cx="32.796983"
     inkscape:cy="37.285306"
     inkscape:document-units="px"
     inkscape:current-layer="layer1"
     showgrid="false"
     units="px"
     showguides="false"
     inkscape:guide-bbox="true"
     inkscape:window-width="1920"
     inkscape:window-height="1017"
     inkscape:window-x="0"
     inkscape:window-y="30"
     inkscape:window-maximized="1">
    <sodipodi:guide
       position="-5.3033009,45.583134"
       orientation="0,1"
       id="guide4410" />
    <sodipodi:guide
       position="-14.20527,56.473841"
       orientation="0,1"
       id="guide4415" />
    <sodipodi:guide
       position="-21.361607,55.691965"
       orientation="-0.5900496,0.807367"
       id="guide4417" />
    <sodipodi:guide
       position="-3.7565048,46.751123"
       orientation="-0.59590937,-0.80305169"
       id="guide4419" />
  </sodipodi:namedview>
  <metadata
     id="metadata3424">
    <rdf:RDF>
      <cc:Work
         rdf:about="">
        <dc:format>image/svg+xml</dc:format>
        <dc:type
           rdf:resource="http://purl.org/dc/dcmitype/StillImage" />
        <dc:title />
      </cc:Work>
    </rdf:RDF>
  </metadata>
  <g
     inkscape:label="Camada 1"
     inkscape:groupmode="layer"
     id="layer1"
     transform="translate(0,-988.3622)">
    <path
       style="color:#000000;display:inline;overflow:visible;visibility:visible;opacity:0.9;fill:url(#radialGradient3936-3);fill-opacity:1;fill-rule:nonzero;stroke:none;stroke-width:0.99999994;marker:none;enable-background:accumulate"
       d="m 32,991.88985 c -15.043618,0 -27.1545445,12.11095 -27.1545445,27.15455 0,4.3625 1.0240922,8.4746 2.8371801,12.1201 0.5405684,0.4315 1.298351,0.867 2.2810724,1.246 2.502058,0.9651 6.341838,1.5498 10.967684,1.5551 9.21519,0.01 20.614155,-2.5191 29.426349,-6.5435 3.004428,-1.3722 6.339275,-3.3512 8.578481,-4.9731 0.138457,-1.1156 0.218323,-2.2503 0.218323,-3.4046 0,-15.0436 -12.110927,-27.15455 -27.154545,-27.15455 z m 25.760156,35.77215 c -1.858557,1.1266 -3.895543,2.216 -5.868999,3.1173 -9.364388,4.2766 -21.082926,6.8862 -30.962854,6.8772 -3.638627,-0 -6.87289,-0.3185 -9.600071,-0.9773 4.973052,5.8297 12.37347,9.5197 20.671768,9.5197 12.027356,0 22.172376,-7.7448 25.760156,-18.5369 z"
       id="rect5505-21-3"
       inkscape:connector-curvature="0" />
    <rect
       width="53.254543"
       height="53.254543"
       rx="26.627272"
       ry="24.904221"
       x="5.3727217"
       y="992.41724"
       id="rect6741-7"
       style="opacity:0.3;fill:none;stroke:url(#linearGradient4136);stroke-width:0.5272727;stroke-linecap:round;stroke-linejoin:round;stroke-miterlimit:4;stroke-dasharray:none;stroke-dashoffset:0;stroke-opacity:1" />
    <path
       style="color:#000000;display:inline;overflow:visible;visibility:visible;opacity:0.7;fill:none;stroke:#000000;stroke-width:0.5272727;stroke-linecap:round;stroke-linejoin:round;stroke-miterlimit:4;stroke-dasharray:none;stroke-dashoffset:0;stroke-opacity:1;marker:none;enable-background:accumulate"
       d="m 32,991.88985 c -15.043618,0 -27.1545445,12.11095 -27.1545445,27.15455 0,4.3625 1.0240922,8.4746 2.8371801,12.1201 0.090114,0.072 0.1953993,0.1433 0.2976206,0.2152 0.078939,0.055 0.1567529,0.1109 0.2430401,0.1658 0.088912,0.057 0.1844674,0.1126 0.2811434,0.1689 0.13663,0.079 0.2805238,0.1577 0.4325286,0.2348 0.074974,0.038 0.1477819,0.077 0.2265623,0.1143 0.2498149,0.1188 0.5132235,0.2364 0.8001774,0.347 0.938272,0.3619 2.064621,0.6701 3.350036,0.9145 0.856943,0.163 1.78468,0.2977 2.77436,0.4006 0.98968,0.103 2.040952,0.1744 3.146129,0.2112 0.552589,0.018 1.118929,0.028 1.697159,0.029 2.303798,0 4.743651,-0.1545 7.245881,-0.4531 0.625557,-0.075 1.255541,-0.1581 1.887677,-0.2503 1.264272,-0.1844 2.538909,-0.4035 3.815519,-0.655 2.55322,-0.5029 5.112468,-1.1356 7.603231,-1.8825 1.245382,-0.3734 2.473647,-0.7755 3.675461,-1.2039 1.802723,-0.6424 3.546294,-1.3442 5.19858,-2.0987 0.431745,-0.1972 0.871241,-0.4097 1.313032,-0.6293 0.09621,-0.048 0.192971,-0.098 0.289383,-0.1472 0.330579,-0.167 0.661859,-0.338 0.992755,-0.5139 0.158772,-0.084 0.316564,-0.1703 0.474751,-0.2564 0.250929,-0.1366 0.500418,-0.2752 0.748685,-0.4151 0.20427,-0.1152 0.409248,-0.2302 0.610692,-0.347 0.175076,-0.1014 0.345654,-0.2038 0.518004,-0.3059 0.243468,-0.1445 0.488396,-0.2884 0.725,-0.4335 1.065586,-0.6535 2.052482,-1.3076 2.888668,-1.9124 0.0057,0 0.01181,-0.01 0.01751,-0.012 0.138462,-1.1156 0.218328,-2.2503 0.218328,-3.4046 0,-15.0436 -12.110927,-27.15455 -27.154545,-27.15455 z m 25.760156,35.77215 c -0.460351,0.2791 -0.931269,0.5558 -1.409837,0.828 -0.374981,0.2133 -0.757881,0.4206 -1.140022,0.6272 -0.11156,0.06 -0.220658,0.1237 -0.332635,0.1833 -0.0032,0 -0.0062,0 -0.0093,0.01 -0.492515,0.2621 -0.988078,0.5164 -1.483983,0.7621 -0.0016,9e-4 -0.0032,0 -0.0053,0 -0.497255,0.2463 -0.995011,0.4833 -1.488106,0.7085 -0.585272,0.2673 -1.179993,0.5276 -1.782635,0.7817 -1.205285,0.508 -2.442852,0.9895 -3.705327,1.4417 -1.893711,0.6784 -3.842213,1.2918 -5.818536,1.8342 -3.293873,0.9039 -6.66454,1.6099 -9.983168,2.0895 -0.663725,0.096 -1.325907,0.183 -1.984481,0.2605 -1.975722,0.2327 -3.922939,0.3818 -5.815447,0.4408 -0.630836,0.02 -1.255765,0.029 -1.87326,0.029 -0.561284,-5e-4 -1.109154,-0.011 -1.650817,-0.027 -0.141662,0 -0.280905,-0.01 -0.4212,-0.014 -0.389847,-0.014 -0.774374,-0.032 -1.153409,-0.055 -0.163655,-0.01 -0.328592,-0.018 -0.490199,-0.029 -0.483877,-0.033 -0.961271,-0.072 -1.426314,-0.1184 -0.0032,-3e-4 -0.0061,-7e-4 -0.0093,0 -0.116787,-0.012 -0.22839,-0.027 -0.343964,-0.04 -0.35855,-0.039 -0.711988,-0.081 -1.058664,-0.1287 -0.18876,-0.026 -0.37403,-0.054 -0.559197,-0.082 -0.26482,-0.041 -0.525309,-0.085 -0.782671,-0.1308 -0.196357,-0.035 -0.394044,-0.069 -0.585973,-0.1071 -0.381164,-0.076 -0.754995,-0.1563 -1.118395,-0.2441 4.97319,5.8297 12.373608,9.5197 20.671906,9.5197 12.027356,0 22.172376,-7.7448 25.760156,-18.5369 z"
       id="rect5505-21-3-1"
       inkscape:connector-curvature="0" />
    <path
       inkscape:connector-curvature="0"
       d="m 16.709093,1001.108 a 0.53583188,0.53583188 0 0 0 -0.535511,0.5355 l 0,1.8393 c -0.619337,0.1721 -1.188433,0.4143 -1.652877,0.7858 a 0.53583188,0.53583188 0 0 0 -0.0011,10e-4 c -0.891964,0.7189 -1.359375,1.7698 -1.359375,2.9855 0,0.6512 0.134885,1.2519 0.41914,1.7723 0.269455,0.4934 0.632752,0.9276 1.077202,1.2935 0.456504,0.3759 1.084681,0.7289 1.900036,1.0937 0.835763,0.378 1.394463,0.6621 1.603444,0.796 a 0.53583188,0.53583188 0 0 0 0.0052,0 c 0.23814,0.1494 0.395396,0.2939 0.48299,0.4119 a 0.53583188,0.53583188 0 0 0 0.0052,0.01 c 0.07282,0.095 0.101953,0.1781 0.101953,0.3151 0,0.2979 -0.06187,0.4047 -0.251278,0.5325 a 0.53583188,0.53583188 0 0 0 -0.0041,0 c -0.189003,0.1298 -0.540273,0.2348 -1.077201,0.2348 -0.447199,0 -0.959428,-0.069 -1.533417,-0.2122 l -0.0011,0 c -0.561308,-0.1414 -1.277399,-0.3926 -2.133807,-0.7559 a 0.53583188,0.53583188 0 0 0 -0.744566,0.4933 l 0,2.4253 a 0.53583188,0.53583188 0 0 0 0.309978,0.486 c 0.859443,0.3997 1.826803,0.6061 2.853658,0.7014 l 0,1.6621 a 0.53583188,0.53583188 0 0 0 0.535518,0.5355 l 2.109091,0 a 0.53583188,0.53583188 0 0 0 0.535511,-0.5355 l 0,-1.864 c 0.631023,-0.1748 1.210517,-0.415 1.685831,-0.7776 0.963012,-0.7301 1.477805,-1.8075 1.477805,-3.0544 0,-0.9024 -0.263783,-1.7186 -0.792968,-2.3676 -0.54234,-0.6708 -1.433903,-1.2411 -2.681676,-1.8084 -0.904066,-0.4105 -1.490773,-0.7055 -1.670384,-0.8187 -0.197971,-0.134 -0.319536,-0.2567 -0.376917,-0.3419 -0.05241,-0.082 -0.08136,-0.1709 -0.08136,-0.3131 0,-0.2367 0.05332,-0.3478 0.222443,-0.4881 0.151629,-0.1258 0.413062,-0.2225 0.852699,-0.2225 0.39255,0 0.794058,0.049 1.204901,0.1463 a 0.53583188,0.53583188 0 0 0 0.0011,0 c 0.41595,0.098 0.969152,0.2781 1.644638,0.5417 a 0.53583188,0.53583188 0 0 0 0.685867,-0.2853 l 0.885653,-2.0288 a 0.53583188,0.53583188 0 0 0 -0.287323,-0.7095 c -0.688327,-0.2839 -1.353212,-0.5055 -1.995809,-0.6643 l -0.0011,0 c -0.251699,-0.063 -0.514245,-0.089 -0.773402,-0.1266 l 0,-1.69 a 0.53583188,0.53583188 0 0 0 -0.535511,-0.5355 l -2.109091,0 z m 9.490909,18.4546 a 0.53583188,0.53583188 0 0 0 -0.535512,0.5355 l 0,2.1091 a 0.53583188,0.53583188 0 0 0 0.535512,0.5355 l 11.072727,0 a 0.53583188,0.53583188 0 0 0 0.535511,-0.5355 l 0,-2.1091 a 0.53583188,0.53583188 0 0 0 -0.535511,-0.5355 l -11.072727,0 z"
       id="path3485"
       style="color:#000000;clip-rule:nonzero;display:inline;overflow:visible;visibility:visible;opacity:0.15;isolation:auto;mix-blend-mode:normal;color-interpolation:sRGB;color-interpolation-filters:linearRGB;solid-color:#000000;solid-opacity:1;fill:#000000;fill-opacity:1;fill-rule:nonzero;stroke:none;stroke-width:1;stroke-linecap:butt;stroke-linejoin:miter;stroke-miterlimit:4;stroke-dasharray:none;stroke-dashoffset:0;stroke-opacity:1;marker:none;color-rendering:auto;image-rendering:auto;shape-rendering:auto;text-rendering:auto;enable-background:accumulate" />
    <path
       inkscape:connector-curvature="0"
       style="color:#000000;clip-rule:nonzero;display:inline;overflow:visible;visibility:visible;opacity:0.3;isolation:auto;mix-blend-mode:normal;color-interpolation:sRGB;color-interpolation-filters:linearRGB;solid-color:#000000;solid-opacity:1;fill:#000000;fill-opacity:1;fill-rule:nonzero;stroke:none;stroke-width:1;stroke-linecap:butt;stroke-linejoin:miter;stroke-miterlimit:4;stroke-dasharray:none;stroke-dashoffset:0;stroke-opacity:1;marker:none;color-rendering:auto;image-rendering:auto;shape-rendering:auto;text-rendering:auto;enable-background:accumulate"
       d="m 16.709093,1001.6435 0,2.2327 c -0.737739,0.1438 -1.356425,0.4128 -1.853693,0.8105 -0.773112,0.623 -1.159588,1.4794 -1.159588,2.5684 0,0.5781 0.118196,1.0837 0.354261,1.5159 0.236065,0.4322 0.552035,0.8103 0.947443,1.1359 0.395409,0.3255 0.988729,0.6659 1.779546,1.0195 0.843931,0.3817 1.400969,0.6591 1.672443,0.8332 0.277376,0.174 0.487587,0.3559 0.629226,0.5468 0.141639,0.1852 0.212144,0.3992 0.212144,0.6405 0,0.4322 -0.16252,0.7574 -0.487109,0.9763 -0.318687,0.2189 -0.779036,0.3285 -1.381001,0.3285 -0.501638,0 -1.056338,-0.076 -1.664204,-0.2276 -0.601966,-0.1515 -1.339665,-0.4122 -2.213104,-0.7826 l 0,2.4252 c 0.929918,0.4324 1.989506,0.6639 3.163636,0.7178 l 0,2.1318 2.109091,0 0,-2.2585 c 0.754222,-0.1524 1.38827,-0.4212 1.897975,-0.8104 0.843932,-0.6399 1.265661,-1.5157 1.265661,-2.6271 0,-0.8027 -0.223956,-1.4787 -0.672479,-2.0288 -0.448523,-0.5557 -1.278236,-1.109 -2.488068,-1.659 -0.91475,-0.4154 -1.495633,-0.7018 -1.743501,-0.8589 -0.241966,-0.1628 -0.419261,-0.328 -0.531392,-0.4964 -0.112131,-0.174 -0.167862,-0.3764 -0.167862,-0.6066 0,-0.3704 0.138675,-0.6699 0.416051,-0.9 0.277376,-0.2302 0.67526,-0.3461 1.194602,-0.3461 0.43672,0 0.879957,0.054 1.32848,0.1607 0.454425,0.1066 1.026237,0.2939 1.716726,0.5633 l 0.885653,-2.0288 c -0.666882,-0.275 -1.307893,-0.4879 -1.921662,-0.6395 -0.38025,-0.095 -0.774531,-0.1571 -1.180184,-0.1926 l 0,-2.1441 z m 9.490909,18.4546 0,2.1091 11.072727,0 0,-2.1091 z"
       id="rect4237-3" />
    <g
       id="g4388"
       transform="matrix(0.52727271,0,0,0.52727271,-1.7454534,499.22616)">
      <path
         id="rect4237"
         d="m 35.000003,951.86057 0,4.23438 c -1.39916,0.27279 -2.57253,0.78283 -3.515625,1.53711 -1.466247,1.18163 -2.199219,2.80589 -2.199219,4.87109 0,1.09647 0.224166,2.05531 0.671875,2.875 0.447709,0.81969 1.046963,1.53686 1.796875,2.1543 0.749913,0.61743 1.875175,1.26293 3.375,1.93359 1.60056,0.72389 2.65701,1.25007 3.171875,1.58008 0.526058,0.33001 0.924734,0.67516 1.19336,1.03711 0.268625,0.3513 0.402343,0.75709 0.402343,1.21484 0,0.8197 -0.308228,1.43639 -0.923828,1.85156 -0.604407,0.41517 -1.477482,0.62305 -2.61914,0.62305 -0.951382,0 -2.0034,-0.14421 -3.15625,-0.43164 -1.141658,-0.28742 -2.540743,-0.78178 -4.197266,-1.48437 l 0,4.5996 c 1.763638,0.82006 3.773202,1.25914 6,1.36133 l 0,4.04297 4,0 0,-4.2832 c 1.430421,-0.28918 2.632927,-0.79899 3.599609,-1.53711 1.60056,-1.21357 2.400391,-2.87464 2.400391,-4.98242 0,-1.52229 -0.424744,-2.80441 -1.275391,-3.84766 -0.850647,-1.05389 -2.424241,-2.10324 -4.71875,-3.14648 -1.734872,-0.78776 -2.836546,-1.33084 -3.30664,-1.62891 -0.458902,-0.30872 -0.795151,-0.62204 -1.007813,-0.94141 -0.212662,-0.33 -0.318359,-0.71393 -0.318359,-1.15039 0,-0.70259 0.263004,-1.27057 0.789062,-1.70703 0.526058,-0.43646 1.280666,-0.65625 2.265625,-0.65625 0.828262,0 1.668885,0.10243 2.519532,0.30469 0.861839,0.20226 1.94631,0.55738 3.255859,1.06836 l 1.679687,-3.84766 c -1.264777,-0.52162 -2.480487,-0.92546 -3.644531,-1.21289 -0.721164,-0.1798 -1.468939,-0.29791 -2.238281,-0.36523 l 0,-4.06641 z m 18,35 0,4 21,0 0,-4 z"
         style="color:#000000;clip-rule:nonzero;display:inline;overflow:visible;visibility:visible;opacity:1;isolation:auto;mix-blend-mode:normal;color-interpolation:sRGB;color-interpolation-filters:linearRGB;solid-color:#000000;solid-opacity:1;fill:#ffffff;fill-opacity:1;fill-rule:nonzero;stroke:none;stroke-width:5;stroke-linecap:butt;stroke-linejoin:miter;stroke-miterlimit:4;stroke-dasharray:none;stroke-dashoffset:0;stroke-opacity:1;marker:none;color-rendering:auto;image-rendering:auto;shape-rendering:auto;text-rendering:auto;enable-background:accumulate"
         inkscape:connector-curvature="0" />
    </g>
    <path
       style="opacity:0.15;fill:#000000;fill-opacity:1;fill-rule:evenodd;stroke:#000000;stroke-width:1.0545454;stroke-linecap:butt;stroke-linejoin:round;stroke-miterlimit:4;stroke-dasharray:none;stroke-opacity:1"
       d="m 42.640022,1008.0266 -5.476192,4.0027 1.276989,1.7476 5.07294,-3.8011 5.093537,3.8155 1.275958,-1.7476 -5.432476,-4.0174 z"
       id="path4393-56"
       inkscape:connector-curvature="0"
       sodipodi:nodetypes="cccccccc" />
    <path
       style="opacity:0.3;fill:#00000f;fill-opacity:0.94117647;fill-rule:evenodd;stroke:none;stroke-width:1px;stroke-linecap:butt;stroke-linejoin:miter;stroke-opacity:1"
       d="m 42.639549,1008.189 -5.476192,4.0026 1.276988,1.7477 5.07294,-3.8011 5.093537,3.8155 1.275958,-1.7476 -5.432476,-4.0175 z"
       id="path4393-5"
       inkscape:connector-curvature="0"
       sodipodi:nodetypes="cccccccc" />
    <path
       style="fill:#ffffff;fill-rule:evenodd;stroke:none;stroke-width:1px;stroke-linecap:butt;stroke-linejoin:miter;stroke-opacity:1"
       d="m 42.639549,1007.4994 -5.476192,4.0026 1.276988,1.7476 5.07294,-3.8011 5.093537,3.8156 1.275958,-1.7477 -5.432476,-4.0174 z"
       id="path4393"
       inkscape:connector-curvature="0"
       sodipodi:nodetypes="cccccccc" />
  </g>
</svg>
